<?xml version="1.0" encoding="UTF-8" standalone="no"?><!DOCTYPE svg PUBLIC "-//W3C//DTD SVG 1.1//EN" "http://www.w3.org/Graphics/SVG/1.1/DTD/svg11.dtd"><svg width="100%" height="100%" viewBox="0 0 6825 3342" version="1.1" xmlns="http://www.w3.org/2000/svg" xmlns:xlink="http://www.w3.org/1999/xlink" xml:space="preserve" xmlns:serif="http://www.serif.com/" style="fill-rule:evenodd;clip-rule:evenodd;stroke-linejoin:round;stroke-miterlimit:2;"><path d="M1916.67,2795.83l4904.17,0c-7.764,19.41 -16.558,37.299 -26.302,55.729c-1.801,3.417 -3.602,6.834 -5.457,10.354c-14.905,28.065 -30.423,55.761 -46.105,83.397c-2.298,4.067 -4.597,8.135 -6.964,12.326c-9.715,17.174 -19.465,34.31 -29.56,51.264c-4.092,7.066 -4.092,7.066 -8.268,14.274c-2.315,3.873 -4.63,7.745 -7.015,11.735c-4.985,14.867 -0.988,21.444 4.671,35.921c4.301,8.555 8.816,17.004 13.493,25.358c1.984,3.568 1.984,3.568 4.008,7.207c2.836,5.093 5.68,10.181 8.534,15.264c6.009,10.707 11.97,21.44 17.934,32.172c3.053,5.491 6.107,10.982 9.164,16.471c15.006,26.955 29.807,54.018 44.524,81.133c2.287,4.191 4.574,8.382 6.93,12.701c2.09,3.854 4.181,7.709 6.335,11.68c1.823,3.355 3.646,6.71 5.524,10.166c4.388,8.682 4.388,8.682 8.554,21.182l-4904.17,-0c18.745,-32.805 18.745,-32.805 28.239,-45.785c2.111,-2.903 4.222,-5.807 6.397,-8.798c2.234,-3.042 4.468,-6.085 6.77,-9.219c4.85,-6.663 9.701,-13.325 14.551,-19.987c3.704,-5.072 3.704,-5.072 7.483,-10.246c11.625,-15.931 23.186,-31.908 34.737,-47.892c2.203,-3.047 4.405,-6.093 6.675,-9.232c23.648,-32.76 46.922,-65.781 70.148,-98.841c-7.02,-14.456 -15.259,-27.176 -24.48,-40.365c-1.634,-2.341 -3.268,-4.681 -4.951,-7.093c-5.455,-7.801 -10.928,-15.589 -16.403,-23.376c-1.905,-2.717 -3.81,-5.435 -5.774,-8.235c-24.061,-34.312 -48.351,-68.456 -72.872,-102.442c-2.179,-3.022 -4.358,-6.044 -6.604,-9.158c-12.822,-17.727 -25.889,-35.209 -39.345,-52.462c-4.571,-6.869 -4.571,-6.869 -4.571,-15.203Zm3142.55,77.604c-3.921,2.256 -7.842,4.512 -11.881,6.836c-4.104,2.385 -8.207,4.77 -12.435,7.227c-4.136,2.385 -8.272,4.77 -12.533,7.227c-10.241,5.908 -20.473,11.833 -30.696,17.773c2.732,15.041 2.732,15.041 8.333,29.167c23.376,-7.255 46.133,-15.645 68.75,-25c5.027,-2.063 10.055,-4.125 15.234,-6.25c13.086,-5.157 13.086,-5.157 16.016,-18.75c-3.842,-9.855 -7.987,-19.6 -12.5,-29.167c-11.72,0 -18.16,5.081 -28.288,10.938Zm-2259.21,59.895c-26.466,34.11 -35.727,70.879 -35.417,113.542c0.024,3.825 0.048,7.65 0.073,11.592c1.144,43.841 12.637,81.536 43.824,113.815c36.972,31.092 73.499,35.488 120.687,31.885c31.625,-7.211 57.62,-19.031 76.806,-45.85c13.652,-22.237 17.792,-40.706 19.027,-66.65c-23.835,-3.467 -46.76,-4.669 -70.833,-4.167c-0.613,2.514 -1.225,5.027 -1.856,7.617c-4.946,17.623 -8.454,27.842 -22.103,40.56c-16.007,7.08 -25.377,8.466 -42.708,5.99c-16.638,-7.359 -25.831,-15.167 -32.813,-31.771c-10.75,-38.524 -11.437,-90.887 3.956,-128.093c7.336,-12.939 15.661,-21.038 28.857,-27.636c29.088,-2.861 29.088,-2.861 45.313,8.073c11.232,16.187 14.375,30.994 17.187,50.26c25.479,0.404 49.721,-0.957 75,-4.167c2.842,-33.393 -9.195,-58.571 -29.688,-84.635c-23.499,-24.786 -48.623,-32.45 -82.415,-33.982c-44.809,-0.679 -82.191,9.613 -112.897,43.617Zm2070.83,-37.5l0,304.167l70.834,0l-0,-304.167l-70.834,0Zm-1387.5,91.667c-2.481,1.88 -4.963,3.76 -7.519,5.697c-16.252,15.053 -19.498,28.63 -20.606,50.553c1.106,21.895 4.449,35.266 20.345,50.553c13.01,9.526 26.307,15.981 41.114,22.364c-11.729,11.728 -21.736,10.948 -38.021,13.021c-5.339,0.698 -10.678,1.396 -16.179,2.115c-4.114,0.505 -8.228,1.01 -12.467,1.53c2.981,20.981 7.131,33.414 20.833,50c33.147,24.282 68.873,23.669 108.334,20.834c22.185,-4.848 39.979,-10.663 55.989,-27.084c2.149,-3.437 4.297,-6.875 6.511,-10.416c3.007,-2.836 6.015,-5.672 9.114,-8.594c7.933,-8.479 10.101,-13.413 11.719,-24.74c4.125,1.375 8.25,2.75 12.5,4.167c2.865,8.594 2.865,8.594 4.167,16.667c4.125,-1.375 8.25,-2.75 12.5,-4.167c1.047,2.438 2.094,4.877 3.173,7.389c5.806,10.44 12.045,16.569 21.045,24.382c2.777,2.46 5.554,4.92 8.415,7.454c26.665,19.506 56.408,18.27 88.2,14.942c27.106,-8.107 43.96,-21.531 60.938,-43.669c8.812,-9.739 18.073,-12.364 30.729,-14.665c8.333,4.167 8.333,4.167 15.104,17.709c11.071,20.228 29.151,31.633 50.732,39.03c38.618,6.722 83.061,6.044 116.683,-15.788c12.263,-9.505 20.312,-18.218 25.814,-32.617c4.77,-38.374 4.77,-38.374 -7.812,-73.438c-30.737,-23.359 -63.111,-28.855 -100.912,-33.252c-12.109,-1.644 -12.109,-1.644 -20.443,-5.81l0,-16.667c15.417,-7.708 33.219,-6.736 50,-4.167c3.438,3.61 6.875,7.219 10.417,10.938c3.438,3.265 6.875,6.531 10.417,9.896c17.505,-0.559 34.327,-4.664 50,-12.5c-5.207,-24.297 -17.411,-36.634 -37.5,-50c-27.836,-14.258 -68.623,-13.234 -98.535,-5.469c-24.402,11.219 -40.921,30.895 -51.465,55.469c-1.569,9.258 -1.569,9.258 -2.084,18.75c-0.947,13.837 -3.585,23.296 -10.416,35.416c-7.834,-11.751 -10.572,-19.182 -14.063,-32.552c-9.224,-31.463 -25.678,-53.128 -52.604,-71.614c-27.577,-12.134 -64.574,-14.157 -93.506,-5.176c-8.252,3.977 -15.628,8.308 -23.161,13.509c-3.781,2.578 -7.562,5.156 -11.458,7.812c-10.832,10.23 -18.27,21.189 -26.042,33.855c-3.867,-0.688 -7.734,-1.375 -11.718,-2.084c-13.099,-2.406 -13.099,-2.406 -25.782,-2.083c-5.81,-6.706 -5.81,-6.706 -11.718,-15.625c-14.089,-19.802 -27.375,-30.739 -50.782,-38.542c-53.065,-4.35 -53.065,-4.35 -100,16.667Zm787.5,25c-20.58,31.343 -24.039,68.52 -18.229,104.948c7.893,32.984 26.902,60.172 55.729,78.385c32.076,13.081 71.331,14.733 103.907,2.084c29.553,-15.549 44.078,-37.705 54.427,-68.75c-20.625,-1.375 -41.25,-2.75 -62.5,-4.167c-5.5,8.25 -11,16.5 -16.667,25c-13.078,6.539 -23.077,5.633 -37.5,4.167c-11.979,-8.334 -11.979,-8.334 -20.833,-20.834c-1.375,-11 -2.75,-22 -4.167,-33.333l145.833,-0c-6.65,-62.882 -6.65,-62.882 -41.145,-107.552c-53.434,-37.404 -115.418,-28.483 -158.855,20.052Zm308.855,-15.625c-2.321,3.609 -2.321,3.609 -4.688,7.292c-1.375,-9.625 -2.75,-19.25 -4.167,-29.167l-62.5,-0l0,225l70.834,-0c0.252,-10.586 0.505,-21.173 0.765,-32.08c0.257,-10.288 0.521,-20.575 0.786,-30.863c0.18,-7.132 0.354,-14.265 0.521,-21.398c0.241,-10.271 0.506,-20.542 0.776,-30.812c0.07,-3.174 0.139,-6.347 0.211,-9.617c0.437,-15.792 1.54,-30.69 5.274,-46.063c24.414,-4.883 24.414,-4.883 33.333,-4.167c8.732,6.112 8.732,6.112 16.667,16.667c1.741,12.572 2.52,23.682 2.539,36.263c0.103,5.236 0.103,5.236 0.209,10.578c0.202,11.123 0.291,22.243 0.377,33.367c0.117,7.552 0.242,15.104 0.374,22.656c0.308,18.49 0.515,36.978 0.668,55.469l66.666,-0c0.311,-24.312 0.537,-48.623 0.687,-72.937c0.063,-8.26 0.148,-16.52 0.256,-24.78c0.153,-11.916 0.223,-23.83 0.278,-35.747c0.065,-3.655 0.129,-7.311 0.196,-11.078c0.007,-26.104 -2.894,-51.042 -20.671,-71.604c-37.307,-23.106 -80.419,-21.746 -109.391,13.021Zm608.333,-0c-2.32,3.609 -2.32,3.609 -4.688,7.292c-1.375,-9.625 -2.75,-19.25 -4.166,-29.167l-62.5,-0l-0,225l70.833,-0c0.252,-10.586 0.505,-21.173 0.765,-32.08c0.258,-10.288 0.522,-20.575 0.786,-30.863c0.18,-7.132 0.354,-14.265 0.521,-21.398c0.242,-10.271 0.507,-20.542 0.776,-30.812c0.07,-3.174 0.14,-6.347 0.211,-9.617c0.438,-15.792 1.541,-30.69 5.274,-46.063c24.414,-4.883 24.414,-4.883 33.334,-4.167c8.732,6.112 8.732,6.112 16.666,16.667c1.741,12.572 2.52,23.682 2.539,36.263c0.104,5.236 0.104,5.236 0.209,10.578c0.202,11.123 0.291,22.243 0.377,33.367c0.118,7.552 0.242,15.104 0.375,22.656c0.308,18.49 0.514,36.978 0.667,55.469l66.667,-0c0.31,-24.389 0.536,-48.776 0.686,-73.166c0.063,-8.289 0.148,-16.577 0.257,-24.866c0.152,-11.946 0.222,-23.891 0.277,-35.838c0.065,-3.678 0.129,-7.355 0.196,-11.144c0.007,-27.196 -4.148,-47.105 -21.729,-68.788c-19.962,-15.852 -39.736,-17.165 -64.437,-16.699c-20.093,2.419 -31.323,12.289 -43.896,27.376Zm195.833,5.729c-22.166,28.35 -32.846,57.993 -31.266,94.076c5.021,37.062 19.896,65.597 47.412,90.82c28.955,20.875 61.257,19.294 95.833,16.667c30.029,-6.893 49.68,-24.809 66.667,-50c6.089,-13.666 6.089,-13.666 8.333,-25c-20.533,-5.86 -41.382,-7.703 -62.5,-4.167c-11.071,11.559 -11.071,11.559 -16.666,25c-13.078,6.539 -23.078,5.633 -37.5,4.167c-11.979,-8.334 -11.979,-8.334 -20.834,-20.834c-1.375,-11 -2.75,-22 -4.166,-33.333l141.666,-0c0.412,-53.578 0.412,-53.578 -25.097,-97.217c-28.144,-26.655 -53.863,-34.167 -92.237,-33.219c-27.995,3.003 -50.146,12.546 -69.645,33.04Zm238.802,-1.042c-9.831,12.823 -13.525,23.744 -14.323,40.105c44.687,8.367 44.687,8.367 87.5,-0c-1.375,6.875 -2.75,13.75 -4.166,20.833c-4.813,0.344 -9.625,0.687 -14.584,1.042c-24.859,3.173 -44.657,11.975 -61.979,30.208c-3.351,5.156 -3.351,5.156 -6.771,10.417c-1.718,2.492 -3.437,4.984 -5.208,7.552c-7.221,21.061 -5.324,40.121 3.385,60.156c9.48,16.664 20.714,27.017 39.323,32.292c26.855,3.136 52.427,4.017 75,-12.5c7.636,-8.003 14.141,-16.142 20.834,-25c2.062,16.5 2.062,16.5 4.166,33.333l66.667,-0c-0.184,-25.654 -0.475,-51.304 -0.865,-76.955c-0.117,-8.721 -0.206,-17.442 -0.264,-26.164c-0.09,-12.558 -0.284,-25.112 -0.499,-37.669c-0.005,-3.881 -0.01,-7.762 -0.015,-11.761c-0.537,-23.96 -3.518,-37.379 -19.19,-55.784c-8.011,-6.132 -8.011,-6.132 -16.667,-9.636c-2.75,-1.273 -5.5,-2.546 -8.333,-3.857c-46.352,-17.653 -108.786,-14.08 -144.011,23.388Zm-2560.16,-26.562c-0.311,22.973 -0.537,45.944 -0.687,68.919c-0.062,7.799 -0.147,15.598 -0.256,23.397c-2.741,59.638 -2.741,59.638 13.443,116.017c16.91,16.91 29.106,21.623 52.604,22.396c24.841,-0.119 41.411,-5.683 59.896,-22.396c1.375,-2.75 2.75,-5.5 4.167,-8.333c1.375,8.25 2.75,16.5 4.166,25l62.5,-0l0,-225l-66.666,-0c-0.156,10.586 -0.312,21.173 -0.472,32.08c-0.193,10.288 -0.406,20.575 -0.622,30.863c-0.138,7.132 -0.255,14.265 -0.35,21.398c-0.14,10.273 -0.358,20.541 -0.591,30.812c-0.04,4.76 -0.04,4.76 -0.081,9.617c-0.515,18.742 -2.914,31.163 -14.551,46.063c-11.619,5.81 -20.503,5.236 -33.333,4.167c-10.849,-16.273 -9.798,-30.361 -10.059,-49.268c-0.081,-3.589 -0.161,-7.178 -0.244,-10.876c-0.25,-11.462 -0.443,-22.924 -0.635,-34.387c-0.159,-7.772 -0.322,-15.544 -0.488,-23.316c-0.4,-19.05 -0.75,-38.101 -1.074,-57.153l-66.667,-0Zm327.604,5.469c-11.647,10.294 -11.647,10.294 -15.104,23.698c-1.375,-9.625 -2.75,-19.25 -4.167,-29.167l-62.5,-0l0,225l66.667,-0c0.107,-8.035 0.215,-16.07 0.326,-24.349c0.234,-10.634 0.473,-21.267 0.716,-31.901c0.059,-5.285 0.118,-10.57 0.179,-16.016c0.785,-30.142 2.089,-52.666 19.612,-77.734c12.485,-7.607 23.017,-9.092 37.5,-12.5l0,-66.667c-26.036,-1.99 -26.036,-1.99 -43.229,9.636Zm1609.9,-5.469l0,225l66.667,-0l-0,-225l-66.667,-0Z" style="fill:#01308a;fill-rule:nonzero;"/><path d="M1987.5,1450l729.167,0l-0,195.833l-525,0l-0,320.834l495.833,-0l0,175l-495.833,-0l-0,350l529.166,-0l0,195.833l-733.333,-0l0,-1237.5Z" style="fill:#0b4e99;fill-rule:nonzero;"/><path d="M3345.83,1450l179.167,0l0,1237.5l-175,0l0,-125c-8.25,16.5 -16.5,33 -25,50c-34.139,48.787 -81.808,72.348 -138.736,85.553c-84.863,14.669 -180.737,4.948 -252.931,-43.886c-49.037,-36.552 -66.589,-97.026 -79.166,-154.167c-0.844,-3.647 -1.687,-7.294 -2.556,-11.051c-15.999,-77.31 -15.462,-157.048 -15.197,-235.593c0.047,-14.347 0.019,-28.693 -0.029,-43.04c-0.325,-114.737 -0.325,-114.737 9.448,-168.649c0.715,-4.048 1.43,-8.095 2.167,-12.265c12.565,-65.363 31.726,-133.817 88.003,-174.942c76.742,-50.533 175.137,-57.616 264.355,-40.902c55.117,14.112 95.509,41.74 127.246,88.965c5.729,9.977 5.729,9.977 14.063,30.81c1.375,-159.5 2.75,-319 4.166,-483.333Zm-295.312,561.198c-11.444,17.839 -16.518,34.966 -21.354,55.469c-0.811,3.362 -1.622,6.724 -2.458,10.188c-11.783,53.496 -10.892,108.248 -10.824,162.728c0.003,3.709 0.005,7.418 0.008,11.24c-4.384,136.989 -4.384,136.989 49.602,256.648c43.347,33.936 98.425,34.247 151.172,30.029c37.034,-5.273 71.129,-16.535 95.052,-46.615c61.88,-99.125 46.356,-308.819 22.396,-418.945c-8.274,-30.475 -19.19,-59.45 -46.566,-77.36c-8.222,-4.258 -16.436,-7.862 -25.049,-11.247c-3.609,-1.632 -7.219,-3.265 -10.938,-4.948c-24.135,-8.256 -48.488,-8.313 -73.697,-8.333c-5.024,-0.076 -5.024,-0.076 -10.149,-0.155c-45.158,-0.109 -83.617,9.913 -117.195,41.301Z" style="fill:#0a4e99;fill-rule:nonzero;"/><path d="M672.656,737.24c6.303,2.058 12.607,4.115 18.911,6.17c13.054,4.257 26.106,8.522 39.156,12.793c26.618,8.704 53.27,17.304 79.921,25.907c40.198,12.98 80.38,26.004 120.541,39.098c13.737,4.477 27.474,8.952 41.211,13.427c5.158,1.681 5.158,1.681 10.421,3.395c60.405,19.668 120.932,38.938 181.491,58.126c54.268,17.205 108.376,34.82 162.338,52.96c31.239,10.497 62.547,20.659 94.057,30.311c12.608,3.9 25.126,8.021 37.63,12.24c-17.882,19.188 -38.022,34.232 -59.114,49.739c-31.816,23.591 -63.278,47.552 -94.315,72.159c-20.392,16.04 -41.465,30.662 -63.237,44.768c-2.952,-2.649 -5.903,-5.298 -8.944,-8.028c-12.784,-9.288 -19.997,-11.457 -35.461,-13.524c-4.633,-0.653 -9.265,-1.305 -14.038,-1.978c-4.97,-0.63 -9.939,-1.26 -15.06,-1.909c-5.153,-0.707 -10.306,-1.413 -15.616,-2.141c-13.679,-1.862 -27.364,-3.665 -41.055,-5.44c-13.826,-1.808 -27.641,-3.698 -41.457,-5.578c-164.661,-23.6 -164.661,-23.6 -328.369,-3.068c-3.305,0.94 -6.609,1.881 -10.014,2.85c-168.713,49.653 -314.263,153.552 -426.103,288.816c-3.206,2.75 -6.413,5.5 -9.717,8.334c-18.615,-1.614 -35.519,-9.569 -52.636,-16.634c-4.638,-1.889 -4.638,-1.889 -9.369,-3.815c-10.068,-4.104 -20.125,-8.234 -30.182,-12.364c-6.926,-2.829 -13.852,-5.655 -20.78,-8.481c-13.973,-5.702 -27.943,-11.414 -41.909,-17.135c-18.433,-7.55 -36.878,-15.071 -55.329,-22.577c-3.982,-1.62 -3.982,-1.62 -8.044,-3.273c-2.568,-1.045 -5.136,-2.09 -7.782,-3.166c-20.495,-8.34 -40.982,-16.696 -61.469,-25.055c0,-12.5 0,-12.5 5.355,-18.929c2.444,-2.262 4.888,-4.523 7.406,-6.853c10.433,-9.723 19.896,-19.852 29.15,-30.68c21.449,-24.733 45.031,-47.389 68.327,-70.357c21.249,-20.977 42.024,-42.066 61.442,-64.767c18.933,-21.279 39.776,-40.843 60.059,-60.823c15.487,-15.346 30.787,-30.618 44.954,-47.201c21.578,-25.165 45.684,-47.997 69.265,-71.262c21.822,-21.556 43.226,-43.152 63.165,-66.49c19.798,-22.233 41.61,-42.675 62.801,-63.566c24.42,-24.209 47.883,-48.761 69.32,-75.667c2.03,-2.396 4.06,-4.791 6.152,-7.259c2.009,-2.503 4.018,-5.006 6.087,-7.585c28.575,-13.926 81.541,14.873 110.84,24.512Z" style="fill:#97be13;fill-rule:nonzero;"/><path d="M6655.16,1868.36c2.422,2.192 4.844,4.383 7.34,6.641c3.698,3.287 3.698,3.287 7.471,6.641c43.155,43.441 57.962,109.883 67.529,168.359c0.488,2.933 0.976,5.865 1.479,8.887c11.914,76.757 6.854,155.795 6.854,232.78l-504.166,-0c-1.457,119.734 -1.457,119.734 51.041,222.135c55.407,34 142.065,32.796 203.646,18.49c17.468,-5.609 31.981,-10.961 45.313,-23.959c6.865,-13.507 11.981,-27.275 16.666,-41.666c1.375,-4.125 2.75,-8.25 4.167,-12.5c1.375,-15.125 2.75,-30.25 4.167,-45.834l179.166,0c0,87.3 -5.799,148.295 -64.827,211.019c-69.381,66.939 -167.25,77.423 -259.391,77.263c-2.871,-0.004 -5.742,-0.008 -8.7,-0.012c-92.869,-0.274 -196.23,-3.266 -269.409,-68.624c-22.598,-23.415 -36.592,-47.538 -47.673,-77.979c-1.487,-4.012 -2.975,-8.024 -4.508,-12.158c-25.044,-74.006 -29.326,-153.996 -29.818,-231.511c-0.033,-5.215 -0.067,-10.43 -0.102,-15.804c-0.057,-10.991 -0.102,-21.983 -0.135,-32.974c-0.036,-11.017 -0.132,-22.028 -0.256,-33.044c-1.295,-115.616 -1.662,-253.657 81.694,-344.04c111.354,-105.046 394.284,-109.22 512.452,-12.11Zm-380.16,127.474c-36.988,46.985 -29.167,115.857 -29.167,170.834l320.834,-0c5.353,-89.972 5.353,-89.972 -29.167,-170.834c-41.182,-37.671 -105.226,-36.252 -157.91,-34.668c-37.987,1.934 -75.232,8.865 -104.59,34.668Z" style="fill:#97be13;fill-rule:nonzero;"/><path d="M3695.83,1820.83l179.167,0c0.061,17.766 0.122,35.532 0.184,53.836c0.21,58.807 0.487,117.613 0.798,176.419c0.187,35.642 0.351,71.283 0.461,106.925c0.097,31.086 0.236,62.172 0.427,93.258c0.099,16.441 0.177,32.882 0.203,49.323c0.026,15.517 0.11,31.032 0.236,46.548c0.054,8.324 0.047,16.649 0.038,24.973c0.423,41.17 2.397,99.1 30.986,132.052c43.775,29.158 95.392,30.66 146.208,23.079c39.693,-10.66 70.225,-33.822 91.292,-68.913c24.789,-45.109 31.03,-92.897 30.969,-143.664c0.042,-5.372 0.084,-10.744 0.128,-16.278c0.114,-14.563 0.154,-29.125 0.179,-43.688c0.039,-15.282 0.148,-30.563 0.25,-45.844c0.181,-28.862 0.3,-57.724 0.397,-86.587c0.113,-32.891 0.296,-65.781 0.485,-98.672c0.385,-67.588 0.675,-135.177 0.926,-202.767l183.333,0l0,866.667l-179.167,0c0,-32.473 0.37,-64.508 2.084,-96.875c0.198,-3.948 0.397,-7.896 0.602,-11.963c0.482,-9.555 0.976,-19.108 1.481,-28.662c-1.37,3.126 -2.739,6.252 -4.15,9.473c-28.086,60.432 -68.573,99.112 -129.883,123.942c-17.858,6.182 -33.82,8.794 -52.686,8.512c-3.292,-0.038 -6.585,-0.075 -9.977,-0.114c-3.698,-0.072 -3.698,-0.072 -7.471,-0.146c-1.375,-4.125 -2.75,-8.25 -4.166,-12.5c-7.904,0.072 -7.904,0.072 -15.967,0.146c-6.917,0.039 -13.835,0.077 -20.752,0.114c-3.472,0.035 -6.945,0.07 -10.523,0.106c-3.343,0.013 -6.687,0.027 -10.131,0.041c-3.077,0.021 -6.154,0.043 -9.324,0.066c-8.303,-0.473 -8.303,-0.473 -20.803,-4.64c-1.375,4.125 -2.75,8.25 -4.167,12.5c-43.503,3.783 -79.878,-18.934 -112.5,-45.833c-52.276,-47.533 -76.311,-124.211 -79.915,-193.567c-0.272,-16.572 -0.285,-33.133 -0.198,-49.706c0.003,-6.329 0.001,-12.657 -0.003,-18.986c-0.003,-17.042 0.046,-34.084 0.104,-51.126c0.053,-17.862 0.057,-35.723 0.067,-53.585c0.026,-33.762 0.094,-67.523 0.178,-101.285c0.094,-38.463 0.139,-76.925 0.181,-115.388c0.087,-79.064 0.24,-158.127 0.419,-237.191Z" style="fill:#0c4f9a;fill-rule:nonzero;"/><path d="M5825,1854.17c6.574,4.64 6.574,4.64 13.281,9.375c55.982,54.737 76.772,128.465 78.756,204.908c0.14,16.353 0.146,32.704 0.103,49.058c-0.001,6.246 -0.001,12.493 0.002,18.739c0.001,16.819 -0.024,33.637 -0.053,50.455c-0.026,17.628 -0.028,35.256 -0.033,52.884c-0.013,33.319 -0.047,66.638 -0.089,99.957c-0.047,37.959 -0.07,75.918 -0.091,113.877c-0.043,78.026 -0.119,156.053 -0.209,234.08l-179.167,0c-0.083,-17.64 -0.165,-35.279 -0.25,-53.454c-0.279,-58.39 -0.603,-116.781 -0.948,-175.171c-0.208,-35.389 -0.402,-70.778 -0.56,-106.168c-0.138,-30.867 -0.304,-61.733 -0.504,-92.599c-0.104,-16.325 -0.195,-32.649 -0.252,-48.973c-0.054,-15.408 -0.146,-30.814 -0.267,-46.221c-0.055,-8.264 -0.07,-16.529 -0.084,-24.793c-0.488,-52.949 -0.99,-102.309 -40.104,-141.423c-14.181,-8.904 -28.588,-14.555 -44.531,-19.531c-2.401,-0.774 -4.802,-1.547 -7.275,-2.344c-53.685,-10.421 -106.505,-1.121 -152.621,27.865c-38.546,28.955 -54.126,74.121 -60.937,120.312c-0.396,8.114 -0.607,16.238 -0.66,24.361c-0.04,4.767 -0.081,9.535 -0.123,14.446c-0.024,5.17 -0.048,10.34 -0.073,15.667c-0.041,5.49 -0.082,10.98 -0.125,16.636c-0.112,15.003 -0.2,30.007 -0.283,45.01c-0.092,15.698 -0.206,31.397 -0.317,47.095c-0.208,29.704 -0.395,59.409 -0.575,89.113c-0.206,33.827 -0.435,67.654 -0.666,101.481c-0.473,69.564 -0.915,139.127 -1.345,208.691l-179.167,0l0,-866.667l175,0l0,133.334c8.25,-16.5 16.5,-33 25,-50c34.92,-48.36 82.752,-81.368 141.114,-93.555c79.583,-12.145 171.776,-6.354 238.053,43.555Z" style="fill:#97be13;fill-rule:nonzero;"/><path d="M4466.67,745.833l258.333,0l0,125l283.333,0l0,458.334l-541.666,-0l-0,-583.334Z" style="fill:#03318a;fill-rule:nonzero;"/><rect x="4537.5" y="1450" width="179.167" height="1237.5" style="fill:#97bd13;fill-rule:nonzero;"/><path d="M1362.5,1454.17c4.125,1.375 12.853,-1.417 17.103,-0c0,2.75 192.944,130.505 206.473,141.778c2.79,2.455 5.58,4.911 8.455,7.44c2.925,2.477 5.849,4.954 8.863,7.506c8.672,7.393 17.24,14.888 25.773,22.442c2.313,2.047 4.626,4.094 7.009,6.204c9.746,8.685 19.378,17.481 28.944,26.365c8.58,7.901 17.343,15.42 26.286,22.9c44.161,38.663 79.005,84.379 112.761,132.031c3.236,3.929 3.236,3.929 6.539,7.938c52.268,76.539 26.653,240.475 11.516,328.537c-34.74,183.529 -120.123,336.994 -247.222,471.859c-2.874,3.05 -5.747,6.101 -8.708,9.244c-31.461,32.427 -67.373,59.979 -103.792,86.589c5.02,-16.699 11.472,-31.692 19.649,-47.086c42.022,-79.212 59.561,-165.091 75.143,-252.654c0.929,-5.136 1.859,-10.272 2.816,-15.565c3.801,-22.064 7.056,-42.91 6.201,-65.327c-0.52,-21.205 5.956,-35.887 15.462,-54.524c51.421,-109.151 65.276,-224.061 59.896,-344.011c-0.209,-4.8 -0.209,-4.8 -0.421,-9.698c-7.307,-131.242 -71.123,-261.061 -152.688,-361.786c-6.752,-9.928 -127.037,-108.434 -126.058,-120.182Z" style="fill:#023088;fill-rule:nonzero;"/><path d="M1295.83,1204.17c1.375,4.125 2.75,8.25 4.167,12.5c-19.072,8.939 -37.992,11.424 -58.594,14.583c-126.333,20.888 -250.892,52.879 -373.45,89.64c-14.289,4.259 -28.62,8.351 -42.956,12.443c-6.093,1.946 -12.172,3.936 -18.229,5.99c-19.271,6.51 -19.271,6.51 -27.419,9.162c-115.066,37.672 -213.355,91.509 -300.185,176.515c-4.593,4.278 -4.593,4.278 -9.278,8.643c-62.363,59.257 -107.303,137.821 -140.722,216.357c-1.869,4.238 -3.739,8.476 -5.664,12.842c-11.638,27.979 -19.509,56.468 -26.628,85.856c-0.879,3.613 -1.758,7.225 -2.663,10.948c-5.664,24.473 -8.963,48.647 -10.879,73.687c-12.893,-23.331 -9.373,-45.542 -4.687,-70.833c4.709,-25.951 6.638,-51.859 8.594,-78.125c3.111,-40.005 7.991,-78.536 16.927,-117.708c0.791,-3.488 1.583,-6.975 2.398,-10.568c5.177,-22.596 10.574,-45.131 16.146,-67.633c1.8,-7.313 3.531,-14.643 5.235,-21.978c6.514,-26.434 16.128,-51.717 25.7,-77.165c1.366,-3.647 2.732,-7.294 4.139,-11.052c21.457,-55.888 50.817,-106.387 88.048,-153.271c2.202,-2.814 4.405,-5.629 6.674,-8.529c2.18,-2.685 4.361,-5.371 6.608,-8.138c1.949,-2.406 3.899,-4.812 5.908,-7.291c5.81,-5.209 5.81,-5.209 18.31,-5.209c1.375,-4.125 2.75,-8.25 4.167,-12.5c8.594,-2.864 8.594,-2.864 16.667,-4.166c-1.375,-4.125 -2.75,-8.25 -4.167,-12.5c227.006,-130.581 552.443,-196.365 795.833,-62.5Z" style="fill:#014f9b;fill-rule:nonzero;"/><rect x="4891.67" y="1820.83" width="179.167" height="866.667" style="fill:#97bd13;fill-rule:nonzero;"/><path d="M1562.5,2333.33c4.444,13.332 3.999,17.045 0.895,30.225c-0.822,3.519 -1.645,7.038 -2.492,10.664c-0.934,3.78 -1.868,7.56 -2.83,11.455c-0.966,3.939 -1.932,7.877 -2.928,11.936c-34.822,138.58 -94.972,280.278 -189.406,389.057c-7.564,8.504 -7.564,8.504 -10.873,17.307c-6.229,10.91 -12.599,14.466 -23.453,20.714c-3.881,2.256 -7.761,4.511 -11.76,6.836c-4.251,2.401 -8.502,4.801 -12.882,7.275c-4.455,2.546 -8.911,5.092 -13.501,7.715c-11.973,6.8 -23.972,13.546 -35.996,20.254c-7.101,3.966 -14.188,7.956 -21.275,11.946c-95.19,53.365 -194.081,99.351 -296.976,135.939c-21.672,7.823 -43.059,15.97 -57.513,34.823c-3.292,12.438 -1.335,21.486 1.823,33.854c2.75,4.125 5.5,8.25 8.334,12.5c-33.197,-13.683 -44.892,-56.174 -57.927,-87.207c-4.23,-10.278 -8.411,-20.575 -12.558,-30.888c-4.29,-10.638 -8.668,-21.239 -13.052,-31.84c-2.753,-6.779 -5.501,-13.561 -8.244,-20.345c-1.31,-3.155 -2.62,-6.311 -3.97,-9.562c-10.25,-25.83 -10.25,-25.83 -4.249,-40.991c15.98,-9.716 32.45,-15.266 50.341,-20.443c199.886,-59.787 393.564,-161.951 545.883,-305.729c9.916,-9.277 19.976,-18.185 30.338,-26.953c16.458,-14.298 30.302,-30.18 44.271,-46.875c3.174,-3.642 6.349,-7.283 9.619,-11.035c34.805,-40.506 64.267,-84.067 90.381,-130.632Z" style="fill:#023089;fill-rule:nonzero;"/><path d="M108.333,2179.17c20.103,19.205 36.986,40.471 54.2,62.256c13.653,17.066 27.913,32.796 43.55,48.065c7.389,7.307 14.106,15.017 20.74,23.012c11.986,13.869 24.711,25.816 38.688,37.646c9.111,7.861 17.909,15.998 26.685,24.228c26.508,24.776 54.281,47.402 83.083,69.447c8.612,6.607 17.18,13.267 25.746,19.932c29.953,23.218 60.002,45.7 91.814,66.325c14.863,9.738 29.236,20.113 43.603,30.567c9.227,6.357 9.227,6.357 19.824,10.058c11.822,4.884 19.467,11.077 29.151,19.401c116.702,95.359 277.995,147.399 427.083,155.729l0,8.334c-59.397,25.244 -118.917,48.805 -180.208,69.01c-2.666,0.88 -5.332,1.76 -8.079,2.666c-16.37,5.383 -32.775,10.651 -49.213,15.824c-3.142,0.99 -6.284,1.981 -9.521,3.002c-68.081,20.576 -164.048,-38.456 -223.292,-69.669c-60.037,-32.383 -115.231,-73.016 -165.055,-119.499c-8.747,-8.081 -17.672,-15.66 -26.872,-23.209c-56.588,-49.298 -105.216,-117.497 -141.927,-182.292c-1.745,-3.048 -3.491,-6.096 -5.289,-9.237c-41.931,-74.012 -94.711,-174.197 -94.711,-261.596Z" style="fill:#1a88bd;fill-rule:nonzero;"/><path d="M1641.67,2866.67c14.247,11.095 16.273,23.502 20.247,40.657c0.64,2.761 1.279,5.521 1.938,8.365c1.339,5.844 2.655,11.693 3.948,17.547c1.97,8.852 4.05,17.673 6.142,26.497c14.641,63.556 14.641,63.556 5.225,86.1c-17.539,23.164 -46.229,34.888 -71.875,46.875c-4.402,2.082 -8.804,4.164 -13.34,6.308c-131.963,61.382 -268.032,113.935 -404.587,164.09c-16.595,6.098 -33.184,12.216 -49.773,18.332c-12.044,4.425 -24.104,8.806 -36.166,13.185c-7.387,2.713 -14.774,5.428 -22.16,8.144c-5.106,1.832 -5.106,1.832 -10.316,3.702c-3.135,1.161 -6.269,2.322 -9.499,3.518c-2.728,0.994 -5.455,1.987 -8.266,3.01c-8.431,4.208 -13.707,9.071 -19.852,16.17l0,4.166c-40.243,1.903 -40.243,1.903 -58.073,-4.166c-20.627,-20.003 -29.315,-50.957 -38.541,-77.604c-1.083,-3.019 -2.165,-6.038 -3.28,-9.148c-5.879,-16.77 -10.998,-32.938 -12.606,-50.748c14.469,-27.622 47.438,-35.661 75.489,-44.515c7.994,-2.445 15.991,-4.88 23.99,-7.308c160.147,-50.004 319.903,-112.879 470.944,-185.677c10.743,-5.119 21.544,-10.107 32.344,-15.104c8.541,-3.992 17.08,-7.985 25.619,-11.98c5.971,-2.743 5.971,-2.743 12.063,-5.542c46.466,-20.168 46.466,-20.168 80.385,-54.874Z" style="fill:#02318a;fill-rule:nonzero;"/><path d="M379.167,1358.33c2.062,4.125 2.062,4.125 4.166,8.334c-2.75,4.211 -5.5,8.422 -8.333,12.76c-91.497,140.921 -98.3,328.785 -98.607,490.476c-0.036,15.298 -0.181,30.589 -0.428,45.886c-2.875,181.711 29.626,357.807 140.832,506.46c8.203,11.084 8.203,11.084 12.37,19.418c-2.75,2.75 -5.5,5.5 -8.334,8.333c-2.062,-6.188 -2.062,-6.188 -4.166,-12.5l-8.334,-0l0,8.333c-22.076,-1.541 -33.797,-13.696 -49.479,-27.864c-2.444,-2.157 -4.888,-4.313 -7.405,-6.535c-4.946,-4.365 -9.878,-8.745 -14.795,-13.142c-7.602,-6.727 -15.325,-13.291 -23.08,-19.841c-9.788,-8.369 -18.788,-16.767 -27.116,-26.628c-2.427,-2.863 -4.855,-5.726 -7.356,-8.675c-2.729,-3.239 -5.457,-6.478 -8.269,-9.815c-3.244,-3.711 -6.488,-7.423 -9.83,-11.246c-35.093,-40.363 -66.797,-83.212 -98.503,-126.254c-2.752,-3.73 -2.752,-3.73 -5.56,-7.535c-9.354,-12.699 -18.605,-25.466 -27.773,-38.298c-2.697,-3.765 -5.393,-7.53 -8.171,-11.41c-14.88,-20.983 -14.88,-20.983 -20.996,-30.257c-1.473,-2.213 -2.947,-4.426 -4.465,-6.706c-5.744,-14.789 -5.137,-29.473 -5.122,-45.117c-0.023,-3.451 -0.046,-6.903 -0.07,-10.459c-0.05,-11.184 -0.024,-22.366 0.022,-33.551c0.007,-3.799 0.015,-7.599 0.023,-11.513c0.183,-54.139 1.938,-106.319 13.779,-159.32c1.433,-7.096 2.866,-14.193 4.297,-21.289c38.696,-183.141 139.125,-332.757 270.703,-462.045Z" style="fill:#023189;fill-rule:nonzero;"/><rect x="4829.17" y="404.167" width="358.333" height="358.333" style="fill:#1a89bf;fill-rule:nonzero;"/><path d="M5083.33,1250l116.667,0l0,420.833l-387.5,0l0,-254.166l270.833,-0l0,-166.667Z" style="fill:#1b89bf;fill-rule:nonzero;"/><path d="M1366.67,1237.5c188.892,84.446 336.597,269.014 409.219,458.128c2.232,5.81 4.534,11.595 6.895,17.354c6.557,16.363 10.413,29.525 9.667,47.435c-0.113,3.566 -0.226,7.132 -0.342,10.807c-0.145,2.621 -0.29,5.242 -0.439,7.943c-2.75,-4.125 -5.5,-8.25 -8.334,-12.5c-1.375,6.875 -2.75,13.75 -4.166,20.833c-13.944,-13.553 -26.498,-27.453 -38.542,-42.708c-27.219,-33.584 -57.771,-62.659 -90.625,-90.625c-3.792,-3.33 -7.584,-6.66 -11.491,-10.091c-73.385,-63.984 -155.799,-115.963 -238.118,-167.546c-8.724,-5.697 -8.724,-5.697 -16.927,-12.175c-8.293,-6.411 -8.293,-6.411 -18.327,-9.912c-13.549,-5.488 -24.42,-13.124 -36.491,-21.37c-57.714,-38.039 -120.94,-63.496 -186.979,-83.073c-4.152,-1.273 -8.304,-2.546 -12.582,-3.857c-32.304,-9.012 -65.454,-12.85 -98.669,-16.971c-3.866,-0.485 -7.732,-0.97 -11.715,-1.47c-3.5,-0.422 -7,-0.845 -10.607,-1.28c-8.094,-1.422 -8.094,-1.422 -12.261,-5.589c-9.7,-1.531 -19.424,-2.926 -29.166,-4.166l-0,-12.5c16.578,-3.222 33.158,-6.43 49.739,-9.636c6.86,-1.333 6.86,-1.333 13.859,-2.693c14.904,-2.878 29.816,-5.706 44.735,-8.505c2.702,-0.507 5.403,-1.015 8.187,-1.538c44.567,-8.312 89.237,-14.907 134.213,-20.577c10.504,-1.327 21.003,-2.69 31.501,-4.057c39.223,-5.037 78.268,-9.086 117.766,-11.328l-0,-8.333Z" style="fill:#1986bd;fill-rule:nonzero;"/><path d="M941.667,1408.33l37.5,0l-0,291.667c128.627,-13.023 128.627,-13.023 241.666,-70.833l8.334,-0c8.517,18.036 8.517,18.036 7.796,29.004c-10.12,23.688 -47.111,35.203 -70.068,44.661c-30.251,11.712 -60.723,20.232 -92.676,25.814c-4.219,0.751 -4.219,0.751 -8.523,1.518c-29.371,4.497 -55.923,3.169 -86.529,3.169l-0,262.5l587.5,0l-0,33.334l-587.5,-0l-0,254.166c-2.75,4.125 -5.5,8.25 -8.334,12.5c1.375,1.375 2.75,2.75 4.167,4.167c0.396,9.888 0.523,19.653 0.473,29.542c0.001,3.089 0.001,6.179 0.002,9.361c-0.003,10.259 -0.036,20.517 -0.068,30.775c-0.008,7.094 -0.014,14.187 -0.018,21.281c-0.016,18.707 -0.057,37.415 -0.103,56.122c-0.042,19.074 -0.062,38.149 -0.083,57.224c-0.044,37.454 -0.115,74.908 -0.203,112.362l-29.167,-0l0,-304.167l-8.333,0l-0,-12.5c-5.5,-1.375 -11,-2.75 -16.667,-4.167l0,-8.333l12.5,0l0,-8.333l12.5,-0l0,-250l-587.5,-0l0,-33.334l583.334,0l-0,-262.5c-22,-1.375 -44,-2.75 -66.667,-4.166c-58.046,-10.498 -111.086,-37.45 -162.5,-65.625c-2.818,-1.518 -5.637,-3.036 -8.541,-4.6c-10.973,-6.208 -19.499,-11.56 -26.973,-21.833c-1.986,-7.942 -1.986,-7.942 3.743,-19.401c2.235,-3.093 4.469,-6.187 6.771,-9.375c15.285,5.811 29.503,12.661 43.896,20.41c4.407,2.342 8.814,4.684 13.355,7.097c9.126,4.872 18.241,9.765 27.344,14.681c56.887,30.11 103.438,39.037 169.572,49.479l-0,-291.667Z" style="fill:#93b525;fill-rule:nonzero;"/><path d="M670.833,1637.5c16.348,5.825 30.767,13.761 45.729,22.403c74.312,42.813 140.266,62.826 225.105,73.43l-0,262.5l-337.5,0c-0,-40.08 1.566,-75.885 6.77,-115.104c0.363,-2.762 0.726,-5.525 1.099,-8.371c10.646,-80.167 24.02,-161.233 58.797,-234.858Z" style="fill:#fefefe;fill-rule:nonzero;"/><path d="M604.167,2029.17l341.666,-0l0,250c-33,4.125 -33,4.125 -66.666,8.333c-13.571,2.818 -26.563,5.678 -39.844,9.375c-3.299,0.898 -6.598,1.795 -9.997,2.72c-52.804,14.85 -101.62,37.626 -150.159,62.905c-45.495,-107.929 -75,-215.533 -75,-333.333Z" style="fill:#fdfdfc;fill-rule:nonzero;"/><path d="M1241.67,1662.5c33.755,78.3 45.022,163.515 54.948,247.656c0.524,4.278 0.524,4.278 1.06,8.643c2.879,26.069 2.325,50.295 2.325,77.034l-320.833,0l-0,-262.5c28.875,-2.75 57.75,-5.5 87.5,-8.333c18.74,-3.578 36.011,-7.225 54.166,-12.5c5.087,-1.456 10.173,-2.911 15.414,-4.411c31.999,-9.662 59.348,-22.103 87.532,-39.941c9.554,-5.648 9.554,-5.648 17.888,-5.648Z" style="fill:#fdfefd;fill-rule:nonzero;"/><path d="M1529.59,2857.56c13.538,-0.009 27.075,-0.085 40.614,-0.164c8.612,-0.012 17.225,-0.02 25.838,-0.024c6.067,-0.045 6.067,-0.045 12.256,-0.091c3.718,0.013 7.437,0.026 11.268,0.039c4.908,-0.009 4.908,-0.009 9.915,-0.018c8.016,1.03 8.016,1.03 16.349,9.364c-28.266,38.915 -78.445,56.357 -121.093,75.781c-5.061,2.324 -10.121,4.649 -15.181,6.975c-15.664,7.186 -31.357,14.308 -47.059,21.41c-2.544,1.152 -5.088,2.304 -7.71,3.491c-30.9,13.977 -61.876,27.768 -92.961,41.327c-12.57,5.507 -25.085,11.129 -37.568,16.831c-22.5,9.283 -43.332,14.883 -67.556,17.516c-5.918,0.676 -11.835,1.359 -17.751,2.046c-4.511,0.517 -4.511,0.517 -9.113,1.044c-14.287,1.711 -28.519,3.765 -42.755,5.85c-2.834,0.413 -5.668,0.826 -8.588,1.251c-5.861,0.856 -11.722,1.715 -17.583,2.575c-9.378,1.375 -18.758,2.738 -28.138,4.098c-26.613,3.857 -53.225,7.72 -79.83,11.627c-16.418,2.41 -32.841,4.794 -49.265,7.161c-6.192,0.898 -12.383,1.805 -18.573,2.722c-64.471,9.545 -64.471,9.545 -93.442,7.461c-10.938,-8.854 -10.938,-8.854 -16.667,-20.833c-0.339,-16.277 2.707,-23.143 12.76,-35.938c28.554,-23.086 64.228,-33.997 98.178,-46.875c44.229,-17.076 87.533,-35.619 130.468,-55.729c2.555,-1.191 5.11,-2.382 7.742,-3.609c31.789,-14.861 62.633,-30.663 93.068,-48.113c17.585,-8.195 30.396,-7.83 49.451,-5.569l-0,12.5c8.273,-0.136 16.547,-0.272 24.821,-0.407c8.512,0.407 8.512,0.407 21.012,4.573l0,-8.333c10.313,-2.063 10.313,-2.063 20.833,-4.167l0,-12.5c64.738,-13.863 130.37,-13.277 196.26,-13.272Z" style="fill:#1987be;fill-rule:nonzero;"/><path d="M1333.33,2029.17l233.334,-0c-0,119.217 -40.786,242.124 -112.5,337.5c-2.595,3.464 -5.189,6.928 -7.862,10.498c-15.64,20.144 -32.375,39.303 -49.43,58.252c-1.916,2.153 -3.833,4.307 -5.807,6.526c-10.038,10.969 -18.791,19.251 -32.735,24.724c-2.825,-3.175 -5.65,-6.349 -8.561,-9.619c-22.304,-24.826 -45.015,-48.248 -70.215,-70.215c-7.386,-6.491 -14.317,-13.179 -21.224,-20.166c1.323,-3.926 2.646,-7.851 4.009,-11.895c4.976,-14.774 9.934,-29.553 14.887,-44.334c2.133,-6.357 4.27,-12.713 6.413,-19.067c29.649,-87.967 42.362,-166.929 49.691,-262.204Z" style="fill:#fcfdfd;fill-rule:nonzero;"/><path d="M979.167,2029.17l320.833,-0c0,31.204 -0.838,59.808 -5.208,90.364c-0.572,4.009 -1.143,8.017 -1.732,12.147c-5.156,34.629 -12.082,68.103 -22.227,101.655c-1.368,4.531 -2.736,9.061 -4.146,13.729c-4.758,15.513 -9.655,30.975 -14.604,46.428c-1.582,5.071 -3.165,10.142 -4.795,15.367c-1.554,4.72 -3.109,9.441 -4.71,14.304c-2.066,6.4 -2.066,6.4 -4.175,12.93c-5.07,9.742 -5.07,9.742 -13.123,13.618c-14.608,0.493 -26.116,-7.683 -38.561,-14.553c-67.99,-35.695 -130.567,-50.067 -207.552,-55.989l-0,-250Z" style="fill:#fdfefd;fill-rule:nonzero;"/><path d="M1345.83,1550c88.977,40.439 153.941,169.314 186.507,256.006c21.514,61.825 34.327,124.289 34.327,189.827l-233.334,0c-2.75,-31.625 -5.5,-63.25 -8.333,-95.833c-8.142,-77.94 -18.962,-157.934 -46.68,-231.657c-3.96,-11.939 -6.741,-22.413 -7.487,-35.01c5.86,-7.649 5.86,-7.649 14.584,-14.062c24.542,-19.427 45.622,-41.423 60.416,-69.271Z" style="fill:#fdfefd;fill-rule:nonzero;"/><path d="M358.333,2029.17c29.594,-0.106 59.187,-0.179 88.781,-0.229c10.076,-0.021 20.153,-0.05 30.229,-0.086c14.448,-0.05 28.896,-0.074 43.344,-0.092c4.535,-0.022 9.071,-0.043 13.744,-0.065c6.256,-0.001 6.256,-0.001 12.638,-0.001c5.538,-0.014 5.538,-0.014 11.187,-0.028c8.411,0.501 8.411,0.501 12.577,4.667c0.752,6.431 1.251,12.891 1.644,19.353c7.069,104.507 28.588,201.753 68.422,298.789c9.101,22.318 9.101,22.318 9.101,36.025c-9.473,8.105 -9.473,8.105 -22.396,17.188c-24.638,17.681 -47.116,37.078 -69.271,57.812c-102.771,-85.992 -173.683,-212.775 -195.312,-345.312c-0.752,-4.6 -0.752,-4.6 -1.519,-9.292c-2.637,-18.405 -3.375,-36.356 -3.285,-54.952c0.017,-4.464 0.034,-8.928 0.051,-13.528c0.022,-3.382 0.043,-6.764 0.065,-10.249Z" style="fill:#fdfdfd;fill-rule:nonzero;"/><path d="M559.71,1567.81c11.357,3.085 18.893,6.973 28.653,13.454c3.128,2.055 6.257,4.109 9.48,6.226c3.204,2.151 6.408,4.302 9.709,6.518c3.285,2.168 6.569,4.335 9.953,6.568c8.074,5.334 16.126,10.697 24.162,16.089c-2.624,15.741 -7.314,29.087 -13.542,43.75c-21.7,55.908 -32.382,114.855 -41.406,173.958c-0.645,4.15 -1.29,8.3 -1.954,12.575c-7.125,49.548 -9.919,98.73 -13.932,148.883l-212.5,0c0,-58.095 0,-58.095 5.209,-84.635c0.852,-4.492 0.852,-4.492 1.722,-9.075c24.691,-126.231 83.653,-230.162 172.236,-322.956c2.073,-2.616 4.146,-5.232 6.283,-7.927c6.217,-4.573 6.217,-4.573 15.927,-3.428Z" style="fill:#fdfefe;fill-rule:nonzero;"/><path d="M1463.75,3167.89c3.652,0.276 7.304,0.551 11.066,0.835c7.696,0.594 15.39,1.223 23.08,1.884c11.652,1.001 23.309,1.898 34.97,2.775c7.518,0.593 15.035,1.192 22.551,1.798c3.43,0.27 6.86,0.539 10.395,0.817c65.935,5.754 65.935,5.754 80.018,19.837c-0.196,26.715 -10.344,39.491 -27.604,58.073c-2.263,2.532 -4.527,5.063 -6.859,7.671c-4.488,5.014 -9,10.007 -13.537,14.977c-7.855,8.636 -15.476,17.465 -23.093,26.311c-22.175,25.447 -22.175,25.447 -37.24,30.468c-6.873,0.375 -13.76,0.509 -20.643,0.501c-4.26,0.006 -8.519,0.012 -12.907,0.018c-4.67,-0.015 -9.339,-0.03 -14.15,-0.046c-4.919,0.001 -9.838,0.002 -14.907,0.002c-13.489,-0.002 -26.977,-0.023 -40.466,-0.052c-14.097,-0.026 -28.194,-0.029 -42.291,-0.034c-26.695,-0.013 -53.389,-0.047 -80.083,-0.089c-30.391,-0.046 -60.782,-0.069 -91.172,-0.09c-62.516,-0.044 -125.032,-0.117 -187.548,-0.21l0,-12.5c21.405,-11.058 42.539,-20.639 65.218,-28.711c6.228,-2.26 12.456,-4.521 18.684,-6.782c3.257,-1.174 6.514,-2.348 9.87,-3.557c64.147,-23.151 127.878,-47.296 191.385,-72.148c3.683,-1.439 7.367,-2.878 11.163,-4.361c10.513,-4.11 21.022,-8.229 31.529,-12.354c3.083,-1.209 6.167,-2.417 9.345,-3.663c2.912,-1.147 5.825,-2.295 8.826,-3.477c2.798,-1.09 5.597,-2.181 8.48,-3.304c7.599,-3.143 14.977,-6.808 22.327,-10.495c18.97,-6.793 33.777,-5.882 53.593,-4.094Z" style="fill:#1a87bd;fill-rule:nonzero;"/><path d="M941.667,2316.67l-0,300c-28.372,-0 -53.035,-0.84 -80.469,-5.729c-3.215,-0.527 -6.429,-1.053 -9.741,-1.596c-31.485,-5.405 -48.469,-11.975 -67.863,-38.509c-1.684,-2.196 -3.368,-4.393 -5.103,-6.657c-25.992,-34.628 -45.653,-72.192 -63.387,-111.572c-1.874,-4.044 -3.749,-8.089 -5.68,-12.256c-1.767,-3.894 -3.534,-7.788 -5.355,-11.8c-1.586,-3.488 -3.173,-6.976 -4.808,-10.569c-3.428,-9.646 -3.428,-9.646 -3.428,-26.312c52.878,-32.553 105.352,-54.956 166.146,-68.229c3.167,-0.7 6.335,-1.4 9.598,-2.12c24.477,-4.917 44.153,-4.651 70.09,-4.651Z" style="fill:#fdfefd;fill-rule:nonzero;"/><path d="M941.667,1408.33l-0,291.667c-93.023,0 -173.763,-41.031 -250,-91.667c2.173,-21.602 12.999,-37.453 24.218,-55.468c2.021,-3.272 4.041,-6.544 6.122,-9.916c21.209,-33.793 44.361,-66.256 69.66,-97.116c3.093,-3.856 6.187,-7.713 9.375,-11.686c16.109,-12.86 31.552,-15.328 51.562,-18.782c5.245,-1.052 5.245,-1.052 10.596,-2.124c27.197,-5.087 49.971,-4.908 78.467,-4.908Z" style="fill:#fdfdfd;fill-rule:nonzero;"/><path d="M979.167,2312.5c85.484,0 160.116,28.843 233.333,70.833c-3.846,29.511 -16.232,54.495 -28.646,81.25c-1.204,2.613 -2.407,5.226 -3.648,7.918c-19.274,41.527 -40.9,76.861 -71.873,110.832c-2.621,3.76 -5.242,7.52 -7.942,11.394c-11.263,12.186 -19.373,13.852 -35.547,16.992c-6.953,1.458 -6.953,1.458 -14.046,2.946c-23.731,2.72 -47.745,2.002 -71.631,2.002l-0,-304.167Z" style="fill:#fdfefd;fill-rule:nonzero;"/><path d="M979.167,1408.33c25.82,0 48.851,0.703 73.958,4.948c4.552,0.633 4.552,0.633 9.196,1.278c21.468,3.604 31.691,9.907 46.012,27.108c2.595,2.954 5.189,5.908 7.862,8.951c34.417,42.555 63.792,88.203 91.097,135.58c2.843,4.79 2.843,4.79 5.743,9.676c1.693,3.011 3.385,6.021 5.129,9.123c1.524,2.657 3.048,5.314 4.618,8.051c2.218,7.785 2.218,7.785 -0.632,16.578c-9.085,13.047 -23.246,18.204 -37.254,24.801c-2.863,1.41 -5.726,2.82 -8.675,4.273c-32.569,15.795 -64.415,26.647 -99.919,33.748c-5.055,1.108 -5.055,1.108 -10.213,2.238c-30.352,6.146 -54.463,5.314 -86.922,5.314l-0,-291.667Z" style="fill:#fdfefd;fill-rule:nonzero;"/><path d="M5425,137.5l0,220.833l-225,0c-0.086,-34.289 -0.172,-68.578 -0.26,-103.906c-0.038,-10.838 -0.076,-21.677 -0.115,-32.844c-0.013,-8.534 -0.023,-17.069 -0.032,-25.603c-0.021,-4.477 -0.043,-8.954 -0.064,-13.567c-0.001,-4.229 -0.002,-8.458 -0.002,-12.816c-0.009,-3.691 -0.019,-7.383 -0.028,-11.187c0.501,-8.41 0.501,-8.41 4.668,-12.577c6.18,-0.344 12.378,-0.401 18.568,-0.34c3.95,0.027 7.9,0.054 11.969,0.082c6.452,0.071 6.452,0.071 13.034,0.144c9.025,0.053 18.05,0.105 27.075,0.155c14.292,0.103 28.584,0.22 42.876,0.359c13.749,0.126 27.497,0.2 41.247,0.268c4.275,0.056 8.551,0.112 12.956,0.17c3.99,0.014 7.979,0.028 12.089,0.042c5.255,0.047 5.255,0.047 10.617,0.094c10.986,-1.118 20.164,-9.307 30.402,-9.307Z" style="fill:#003089;fill-rule:nonzero;"/><path d="M2970.07,2902.26c27.161,18.124 48.44,44.51 54.932,76.905c0.817,9.994 0.628,19.115 0,29.166c-25.279,3.21 -49.521,4.571 -75,4.167c-0.36,-2.465 -0.72,-4.931 -1.09,-7.471c-3.023,-16.998 -6.126,-28.419 -16.097,-42.789c-15.739,-10.606 -26.878,-11.439 -45.313,-8.073c-14.928,5.971 -19.74,10.704 -28.125,24.479c-15.704,39.259 -17.74,100.205 -1.204,139.534c7.862,12.385 16.076,17.625 29.329,23.487c17.331,2.476 26.701,1.09 42.708,-5.99c15.21,-14.173 19.129,-28.351 23.959,-48.177c24.073,-0.502 46.998,0.7 70.833,4.167c-1.027,31.842 -8.907,54.254 -29.167,79.166c-33.087,29.124 -67.17,35.399 -110.4,34.619c-36.249,-3.192 -66.012,-19.433 -89.6,-47.119c-8.342,-13.395 -14.992,-27.019 -20.833,-41.666c-1.525,-3.669 -3.051,-7.337 -4.622,-11.117c-10.706,-40.052 -11.396,-97.136 7.731,-134.456c1.724,-2.836 3.448,-5.672 5.224,-8.594c1.767,-3.266 3.535,-6.531 5.355,-9.896c35.993,-60.957 117.993,-80.592 181.38,-50.342Z" style="fill:#fafbfc;fill-rule:nonzero;"/><path d="M5787.5,2987.5c15.006,15.006 21.271,26.027 21.689,46.942c0.125,5.505 0.125,5.505 0.252,11.121c0.069,3.967 0.139,7.934 0.211,12.022c0.086,4.057 0.173,8.115 0.262,12.295c0.273,12.991 0.518,25.983 0.763,38.974c0.18,8.795 0.362,17.589 0.545,26.384c0.447,21.587 0.869,43.174 1.278,64.762l-66.667,-0c-2.062,-16.5 -2.062,-16.5 -4.166,-33.333c-1.563,2.008 -3.126,4.017 -4.737,6.087c-2.132,2.632 -4.264,5.264 -6.461,7.975c-2.079,2.611 -4.157,5.221 -6.299,7.91c-18.674,17.905 -41.204,17.574 -65.772,17.09c-19.121,-2.378 -32.243,-8.843 -45.898,-22.396c-11.886,-19.686 -17.06,-39.7 -12.5,-62.5c10.572,-25.795 25.026,-38.608 50,-50c20.23,-7.963 38.448,-10.006 59.896,-10.937c3.067,-0.161 6.134,-0.322 9.293,-0.488c7.491,-0.39 14.984,-0.736 22.478,-1.075c-4.575,-22.532 -4.575,-22.532 -20.834,-37.5c-15.34,-1.394 -25.429,-2.065 -39.062,5.469c-7.78,7.07 -7.78,7.07 -10.938,19.531c-21.465,0.377 -41.329,-0.638 -62.5,-4.166c1.01,-20.706 7.38,-32.72 21.224,-47.445c42.411,-35.892 111.228,-32.712 157.943,-6.722Zm-110.677,124.479c-6.632,8.574 -6.632,8.574 -8.073,19.271c2.808,14.042 7.12,18.82 18.75,27.083c16.012,2.726 22.703,1.462 36.458,-7.291c14.562,-14.562 18.122,-23.39 18.23,-43.75c-0.172,-5.157 -0.344,-10.313 -0.521,-15.625c-24.15,-0 -45.228,5.959 -64.844,20.312Z" style="fill:#f9fbfc;fill-rule:nonzero;"/><path d="M4672.74,2974.33c18.995,10.466 25.453,20.174 32.967,40.949c4.603,17.017 4.158,33.736 3.849,51.254c-0.018,3.838 -0.035,7.675 -0.054,11.628c-0.069,12.141 -0.226,24.279 -0.385,36.419c-0.063,8.279 -0.12,16.558 -0.171,24.838c-0.137,20.194 -0.353,40.386 -0.611,60.579l-66.666,0c-0.059,-7.064 -0.059,-7.064 -0.118,-14.27c-0.167,-17.489 -0.441,-34.975 -0.747,-52.462c-0.118,-7.565 -0.206,-15.131 -0.264,-22.697c-0.09,-10.883 -0.284,-21.76 -0.499,-32.641c-0.005,-3.378 -0.01,-6.755 -0.015,-10.235c-0.393,-15.14 -1.184,-24.227 -10.349,-36.547c-10.928,-7.599 -16.611,-7.823 -29.675,-6.148c-4.125,1.375 -8.25,2.75 -12.5,4.167c-4.49,18.488 -5.07,36.755 -5.485,55.68c-0.087,3.3 -0.173,6.6 -0.262,10c-0.272,10.485 -0.518,20.97 -0.763,31.455c-0.181,7.132 -0.362,14.263 -0.546,21.395c-0.448,17.434 -0.862,34.868 -1.277,52.303l-70.834,0l0,-225l62.5,0c1.375,9.625 2.75,19.25 4.167,29.167c3.094,-3.953 6.188,-7.907 9.375,-11.979c21.312,-27.233 56.985,-28.581 88.363,-17.855Z" style="fill:#f8f9fb;fill-rule:nonzero;"/><path d="M5276.63,2973.84c17.686,8.091 28.046,16.076 35.872,34.489c3.506,11.827 4.677,22.307 4.64,34.624c-0.001,3.502 -0.001,7.004 -0.001,10.613c-0.022,3.742 -0.043,7.484 -0.065,11.339c-0.006,3.861 -0.012,7.721 -0.018,11.699c-0.024,12.311 -0.076,24.622 -0.129,36.934c-0.021,8.355 -0.04,16.71 -0.057,25.065c-0.046,20.464 -0.118,40.929 -0.203,61.393l-66.667,0c-0.058,-7.064 -0.058,-7.064 -0.118,-14.27c-0.166,-17.489 -0.44,-34.975 -0.747,-52.462c-0.117,-7.565 -0.206,-15.131 -0.264,-22.697c-0.089,-10.883 -0.284,-21.76 -0.499,-32.641c-0.005,-3.378 -0.01,-6.755 -0.015,-10.235c-0.393,-15.14 -1.184,-24.227 -10.348,-36.547c-10.929,-7.599 -16.612,-7.823 -29.676,-6.148c-4.125,1.375 -8.25,2.75 -12.5,4.167c-4.49,18.488 -5.069,36.755 -5.485,55.68c-0.086,3.3 -0.173,6.6 -0.262,10c-0.271,10.485 -0.518,20.97 -0.763,31.455c-0.18,7.132 -0.362,14.263 -0.545,21.395c-0.448,17.434 -0.862,34.868 -1.278,52.303l-70.833,0l-0,-225l62.5,0c1.375,9.625 2.75,19.25 4.166,29.167c3.094,-3.953 6.188,-7.907 9.375,-11.979c20.71,-26.462 53.115,-27.656 83.92,-18.344Z" style="fill:#f8f9fb;fill-rule:nonzero;"/><path d="M5516.67,2979.17c29.755,20.346 44.562,40.34 54.166,75l0,45.833l-141.666,0c3.348,40.822 3.348,40.822 25,54.167c14.406,2.778 14.406,2.778 29.166,-0c10.959,-9.053 18.639,-16.445 25,-29.167c7.292,-0.113 14.583,-0.194 21.875,-0.26c4.061,-0.049 8.121,-0.097 12.305,-0.147c10.227,0.357 18.577,1.628 28.32,4.574c-5.835,28.447 -25.575,51.472 -49.218,67.675c-28.542,12.918 -71.005,13.726 -100.261,2.898c-34.839,-21.601 -53.818,-43.377 -65.413,-82.894c-7.871,-37.768 -0.384,-71.345 19.059,-104.346c34.656,-41.75 91.44,-55.656 141.667,-33.333Zm-83.334,54.166c-1.375,9.625 -2.75,19.25 -4.166,29.167l75,0c2.809,-24.627 2.809,-24.627 -10.938,-36.979c-23.872,-15.031 -40.782,-13.486 -59.896,7.812Z" style="fill:#f9fafb;fill-rule:nonzero;"/><path d="M4420.18,2985.22c25.381,18.208 38.158,39.145 46.485,68.946c2.062,22.687 2.062,22.687 4.166,45.833l-145.833,0c3.349,40.822 3.349,40.822 25,54.167c14.406,2.778 14.406,2.778 29.167,-0c10.959,-9.053 18.639,-16.445 25,-29.167c20.625,1.375 41.25,2.75 62.5,4.167c-10.349,31.045 -24.874,53.201 -54.427,68.75c-28.532,11.011 -66.108,12.444 -95.053,1.823c-31.116,-19.292 -52.69,-38.791 -63.02,-74.74c-7.838,-35.822 -5.151,-73.651 13.541,-105.729c35.775,-51.152 97.834,-65.628 152.474,-34.05Zm-91.015,48.112c-1.375,9.625 -2.75,19.25 -4.167,29.167l75,0c2.809,-24.627 2.809,-24.627 -10.938,-36.979c-23.872,-15.031 -40.782,-13.486 -59.895,7.812Z" style="fill:#f9fbfb;fill-rule:nonzero;"/><path d="M3062.5,2975l66.667,0c0.082,4.857 0.165,9.714 0.25,14.719c0.317,18.008 0.686,36.015 1.072,54.022c0.16,7.796 0.305,15.592 0.435,23.389c0.191,11.202 0.432,22.402 0.684,33.602c0.048,3.49 0.096,6.98 0.146,10.576c0.415,16.291 0.682,24.847 9.913,38.692c14.11,1.841 22.173,1.604 34.635,-5.469c14.702,-14.702 12.095,-34.088 12.516,-53.564c0.087,-3.312 0.174,-6.624 0.263,-10.036c0.272,-10.57 0.518,-21.141 0.763,-31.712c0.18,-7.17 0.361,-14.339 0.545,-21.509c0.449,-17.57 0.862,-35.139 1.278,-52.71l66.666,0l0,225l-62.5,0c-1.375,-8.25 -2.75,-16.5 -4.166,-25c-3.094,3.266 -6.188,6.531 -9.375,9.896c-21.103,20.143 -37.376,21.13 -65.967,20.573c-16.561,-1.774 -25.258,-6.373 -37.158,-17.969c-16.897,-27.384 -17.263,-53.146 -17.074,-84.326c0.006,-3.67 0.012,-7.34 0.018,-11.121c0.023,-11.674 0.075,-23.348 0.129,-35.022c0.02,-7.934 0.04,-15.869 0.057,-23.803c0.045,-19.41 0.117,-38.819 0.203,-58.228Z" style="fill:#fafbfc;fill-rule:nonzero;"/><path d="M3834,2978.78c26.294,15.632 45.022,33.518 55.062,62.874c7.616,36.605 8.063,77.783 -8.252,112.028c-13.894,21.093 -35.308,39.861 -59.245,48.666c-30.871,6.207 -65.984,7.63 -93.49,-9.392c-2.39,-1.799 -4.78,-3.598 -7.243,-5.452c-2.605,-1.928 -5.21,-3.856 -7.894,-5.843c-25.597,-22.041 -35.098,-51.468 -39.371,-84.343c-1.287,-34.052 7.298,-67.951 28.401,-95.084c33.973,-34.147 87.903,-43.606 132.032,-23.454Zm-79.729,54.681c-8.557,16.444 -6.908,34.112 -6.355,52.22c-0.011,3.886 -0.022,7.772 -0.033,11.776c0.375,26.266 3.909,41.84 22.949,60.88c11.969,2.435 11.969,2.435 25,0c18.602,-15.586 18.602,-15.586 25.804,-37.748c0.364,-11.376 0.59,-22.746 0.759,-34.127c0.156,-3.926 0.311,-7.852 0.472,-11.897c0.237,-18.81 0.287,-32.801 -11.638,-47.998c-10.656,-11.017 -10.656,-11.017 -25.813,-13.021c-15.587,3.34 -21.407,7.485 -31.145,19.915Z" style="fill:#f9fafb;fill-rule:nonzero;"/><path d="M3549.74,2969.01c4.398,0.052 4.398,0.052 8.884,0.105c28.008,0.913 45.44,6.382 65.562,25.546c17.481,19.011 17.481,19.011 17.481,34.506c-5.982,2.106 -11.973,4.184 -17.969,6.25c-3.336,1.16 -6.671,2.32 -10.108,3.515c-9.423,2.735 -9.423,2.735 -21.923,2.735c-2.836,-3.438 -5.672,-6.875 -8.594,-10.417c-15.686,-13.35 -24.815,-12.332 -44.71,-11.556c-9.356,0.64 -9.356,0.64 -17.53,5.306l0,16.667c19.477,5.243 38.332,9.053 58.334,11.718c26.863,4.313 46.415,13.42 65.332,33.041c11.856,20.276 8.476,45.198 5.501,67.741c-7.065,18.783 -17.542,28.938 -34.668,39.03c-35.8,15.495 -80.665,18.281 -117.936,6.022c-21.939,-11.782 -36.477,-26.807 -47.396,-49.219l0,-16.667c18.131,-2.681 35.821,-4.767 54.167,-4.166c13.281,9.896 13.281,9.896 20.833,20.833c10.265,5.133 17.456,4.864 28.906,4.948c3.647,0.059 7.294,0.118 11.052,0.179c11.136,-0.266 11.136,-0.266 22.542,-9.294l0,-16.666c-7.55,-1.917 -15.103,-3.825 -22.656,-5.729c-4.56,-1.155 -9.12,-2.31 -13.819,-3.5c-11.255,-2.722 -22.466,-5.02 -33.837,-7.178c-26.346,-5.812 -43.803,-19.789 -58.855,-41.927c-4.59,-21.996 -5.113,-44.467 5.534,-64.664c22.851,-27.741 50.193,-37.701 85.873,-37.159Z" style="fill:#f9fafb;fill-rule:nonzero;"/><path d="M4065.37,2977.6c16.776,10.467 31.671,24.588 37.255,44.011c0.511,2.492 1.021,4.984 1.547,7.552c-5.982,2.106 -11.973,4.184 -17.969,6.25c-3.336,1.16 -6.671,2.32 -10.108,3.515c-9.423,2.735 -9.423,2.735 -21.923,2.735c-2.836,-3.438 -5.672,-6.875 -8.594,-10.417c-15.686,-13.35 -24.815,-12.332 -44.71,-11.556c-9.356,0.64 -9.356,0.64 -17.53,5.306l0,16.667c18.729,4.947 37.108,8.989 56.25,11.979c25.884,4.631 46.635,11.688 65.381,30.534c13.813,21.36 10.304,45.48 7.536,69.987c-9.664,22.952 -27.831,35.471 -50,45.833c-36.743,9.936 -82.883,9.81 -116.667,-8.333c-14.448,-12.201 -24.867,-24.734 -33.333,-41.667l0,-12.5c20.177,-5.566 37.227,-9.389 58.333,-8.333c1.032,2.578 2.063,5.156 3.125,7.812c6.293,10.698 10.488,12.624 21.875,17.188c9.266,1.305 9.266,1.305 18.75,1.041c3.137,0.022 6.274,0.043 9.506,0.065c10.201,-1.221 17.049,-4.364 25.911,-9.44l0,-16.666c-3.078,-0.758 -6.155,-1.515 -9.326,-2.295c-8.878,-2.2 -17.748,-4.432 -26.611,-6.69c-8.825,-2.206 -17.677,-4.306 -26.563,-6.25c-25.768,-6.012 -45.27,-13.96 -62.5,-34.765c-8.075,-24.225 -8.419,-49.672 2.865,-72.657c33.792,-37.445 90.045,-50.724 137.5,-28.906Z" style="fill:#f9fafb;fill-rule:nonzero;"/><path d="M875,1379.17c-0.773,2.406 -1.547,4.812 -2.344,7.291c-2.005,10.312 -0.48,16.083 2.344,26.042c-19.606,6.107 -39.131,11.977 -59.131,16.65c-68.351,16.261 -133.524,42.094 -190.869,83.35c-5.914,4.149 -5.914,4.149 -11.947,8.382c-126.137,91.245 -219.588,227.316 -244.84,382.748c-2.024,14.055 -3.941,28.114 -5.713,42.203c-5.026,-9.717 -9.023,-18.735 -12.5,-29.166c-2.75,-1.375 -5.5,-2.75 -8.333,-4.167l-0,-12.5l-8.334,0c-1.375,4.125 -2.75,8.25 -4.166,12.5c20.515,-155.555 106.929,-300.847 229.004,-398.633c86.469,-66.241 204.015,-134.7 316.829,-134.7Z" style="fill:#2773ad;fill-rule:nonzero;"/><path d="M1520.83,2291.67c3.799,14.088 6.364,23.715 0.818,37.475c-5.289,8.997 -10.963,17.528 -16.963,26.066c-2.127,3.129 -4.253,6.258 -6.444,9.481c-53.488,77.734 -118.8,142.792 -198.244,193.644c-4.168,2.761 -8.336,5.522 -12.63,8.366c-75.853,47.515 -184.311,88.263 -274.87,83.301c-15.259,-10.173 -23.322,-15.799 -29.167,-33.333c4.7,-0.36 9.4,-0.72 14.242,-1.091c135.321,-11.534 258.116,-58.858 360.758,-148.909c5.318,-4.488 5.318,-4.488 10.743,-9.066c39.117,-33.778 68.38,-73.662 97.281,-116.081c34.878,-49.853 34.878,-49.853 54.476,-49.853Z" style="fill:#2572ad;fill-rule:nonzero;"/><rect x="4870.83" y="2895.83" width="70.833" height="304.167" style="fill:#f3f5f9;fill-rule:nonzero;"/><path d="M3433.33,2970.83l0,66.667c-13.834,3.255 -13.834,3.255 -27.669,6.51c-15.66,9.541 -21.486,22.319 -26.497,39.323c-2.491,20.14 -2.899,40.14 -3.125,60.417c-0.186,8.121 -0.186,8.121 -0.375,16.406c-0.293,13.28 -0.489,26.562 -0.667,39.844l-66.667,0l0,-225l62.5,0c1.375,9.625 2.75,19.25 4.167,29.167c1.719,-3.18 3.437,-6.36 5.208,-9.636c15.891,-24.404 22.183,-23.698 53.125,-23.698Z" style="fill:#f7f8fa;fill-rule:nonzero;"/><path d="M1316.67,2083.33c11.844,11.845 9.584,19.902 9.635,36.459c-0.954,114.024 -56.391,234.92 -101.518,337.86c-2.57,5.864 -5.118,11.738 -7.641,17.623c-15.148,35.243 -32.903,66.604 -55.392,97.593c-7.532,9.796 -7.532,9.796 -11.751,18.799c-9.719,2.619 -19.554,4.814 -29.427,6.771c-8.065,1.627 -8.065,1.627 -16.292,3.287c-4.163,0.806 -8.326,1.612 -12.614,2.442c9.938,-15.368 20.38,-29.643 31.885,-43.902c96.721,-123.009 145.144,-304.322 172.281,-456.098c4.125,-1.375 8.25,-2.75 12.5,-4.167c5.037,-8.334 5.037,-8.334 8.334,-16.667Z" style="fill:#369fce;fill-rule:nonzero;"/><rect x="5541.67" y="0" width="133.333" height="137.5" style="fill:#218cc1;fill-rule:nonzero;"/><rect x="5475" y="450" width="133.333" height="133.333" style="fill:#003089;fill-rule:nonzero;"/><path d="M445.833,2350c16.563,5.408 24.353,10.827 34.375,25c16.395,22.144 34.37,42.336 53.125,62.5c4.077,4.56 4.077,4.56 8.236,9.212c72.084,77.094 175.056,125.081 275.098,153.288c-2.063,4.125 -2.063,4.125 -4.167,8.333l-12.5,0l-0,8.334c-16.852,9.899 -26.31,8.506 -44.889,4.231c-117.586,-37.012 -249.269,-125.166 -313.444,-233.398c-2.084,-25 -2.084,-25 4.166,-37.5Z" style="fill:#2572ad;fill-rule:nonzero;"/><rect x="5000" y="2975" width="66.667" height="225" style="fill:#fefefe;fill-rule:nonzero;"/><path d="M1183.33,1416.67c26.708,2.837 47.141,14.195 70.573,26.562c4.264,2.245 8.528,4.49 12.92,6.803c56.421,30.339 104.016,67.93 149.841,112.468c2.314,2.211 4.628,4.422 7.013,6.7c17.72,17.224 33.008,35.411 47.674,55.279c2.163,2.903 4.327,5.806 6.555,8.797c14.744,20.051 27.609,40.259 38.758,62.557c-2.75,2.75 -5.5,5.5 -8.334,8.334c-1.375,2.75 -2.75,5.5 -4.166,8.333c-2.75,-1.375 -5.5,-2.75 -8.334,-4.167c-2.75,4.125 -5.5,8.25 -8.333,12.5c-1.574,-2.932 -3.147,-5.865 -4.769,-8.886c-67.041,-120.266 -169.442,-197.834 -291.064,-257.78l-0,-8.334l-8.334,0c-1.589,-8.297 -2.972,-16.636 -4.166,-25c1.375,-1.375 2.75,-2.75 4.166,-4.166Z" style="fill:#2571ad;fill-rule:nonzero;"/><path d="M566.667,2029.17l37.5,-0c0.456,5.843 0.913,11.687 1.383,17.708c3.888,47.531 8.596,94.103 19.45,140.625c0.749,3.258 1.499,6.515 2.271,9.871c13.117,55.526 32.051,108.163 53.531,160.901c2.913,7.153 2.913,7.153 5.884,14.449c1.761,4.261 3.522,8.522 5.337,12.911c3.81,10.201 3.81,10.201 3.81,18.535l-12.5,-0c0.258,3.265 0.516,6.531 0.782,9.896c-0.258,3.609 -0.516,7.218 -0.782,10.937c-6.187,4.125 -6.187,4.125 -12.5,8.333c-1.375,-4.125 -2.75,-8.25 -4.166,-12.5c-2.75,-1.375 -5.5,-2.75 -8.334,-4.166c-2.907,-7.828 -2.907,-7.828 -5.631,-18.083c-6.942,-24.523 -15.918,-48.003 -25.098,-71.761c-37.65,-99.273 -53.825,-191.741 -60.937,-297.656Z" style="fill:#379fcd;fill-rule:nonzero;"/><path d="M1566.67,2333.33l4.166,0c0.44,22.453 -0.916,43.172 -4.59,65.414c-0.73,4.432 -0.73,4.432 -1.474,8.954c-1.586,9.506 -3.222,19.002 -4.873,28.497c-0.559,3.245 -1.117,6.49 -1.693,9.834c-11.291,65.093 -24.494,130.469 -52.23,190.866c-4.805,10.539 -9.012,20.989 -13.118,31.803c-22.005,55.009 -51.937,82.958 -101.188,114.632c-4.26,2.922 -8.519,5.844 -12.907,8.854c-8.109,5.552 -16.257,10.945 -24.593,16.146c-2.75,-1.375 -5.5,-2.75 -8.334,-4.166c2.957,-3.118 2.957,-3.118 5.974,-6.299c24.484,-26.585 45.046,-55.241 64.86,-85.368c2.793,-4.2 5.586,-8.4 8.463,-12.728c64.822,-101.091 104.814,-217.215 133.203,-333.105c1.646,-6.593 3.295,-13.185 4.948,-19.776c1.117,-4.474 2.235,-8.948 3.386,-13.558Z" style="fill:#020638;fill-rule:nonzero;"/><path d="M1245.83,2404.17c19.238,11.991 34.899,25.282 50.782,41.406c2.167,2.135 4.334,4.27 6.567,6.47c12.253,12.316 21.869,24.17 30.151,39.624c-52.429,40.765 -111.182,76.157 -175,95.833c-2.75,-1.375 -5.5,-2.75 -8.333,-4.167c2.369,-3.173 4.737,-6.346 7.178,-9.615c24.86,-34.416 42.925,-69.109 59.489,-108.093c3.555,-8.218 7.127,-16.429 10.706,-24.637c3.176,-7.304 6.311,-14.626 9.443,-21.949c4.851,-10.706 4.851,-10.706 9.017,-14.872Z" style="fill:#f9fcfb;fill-rule:nonzero;"/><path d="M341.667,1995.83l4.166,0l0,25l8.334,0c0.395,3.142 0.791,6.283 1.199,9.52c15.487,120.752 43.816,219.492 107.134,323.814c-8.25,2.062 -8.25,2.062 -16.667,4.166c-1.375,8.25 -2.75,16.5 -4.166,25c-17.149,-14.851 -26.591,-32.683 -37.24,-52.343c-1.843,-3.375 -3.687,-6.75 -5.586,-10.227c-41.568,-76.765 -89.278,-184.809 -73.841,-274.93c4.036,-5.651 8.2,-11.213 12.5,-16.666c2.347,-8.826 2.347,-8.826 2.865,-17.709c0.429,-5.156 0.859,-10.312 1.302,-15.625Z" style="fill:#2773ad;fill-rule:nonzero;"/><path d="M1570.83,1912.5c1.375,5.5 2.75,11 4.167,16.667c5.5,-2.75 11,-5.5 16.667,-8.334c24.001,113.58 5.769,240.361 -41.667,345.834l-8.333,-0l-0,8.333c-12.375,2.063 -12.375,2.063 -25,4.167c-1.375,-2.75 -2.75,-5.5 -4.167,-8.334l8.333,0c-1.547,-4.769 -1.547,-4.769 -3.125,-9.635c-1.265,-18.67 3.671,-29.65 10.417,-46.843c6.351,-17.506 11.349,-35.173 16.146,-53.157c0.857,-3.106 1.715,-6.211 2.598,-9.411c13.24,-50.328 16.714,-99.655 15.631,-151.527c-1.279,-62.566 -1.279,-62.566 8.333,-87.76Z" style="fill:#2471ad;fill-rule:nonzero;"/><path d="M383.333,1358.33c8.334,8.334 8.334,8.334 12.5,20.834c-1.823,9.114 -1.823,9.114 -4.166,16.666c2.75,1.375 5.5,2.75 8.333,4.167c-2.406,3.266 -4.813,6.531 -7.292,9.896c-9.182,13.885 -15.154,28.139 -21.045,43.668c-3.841,10.072 -7.826,20.024 -11.946,29.981c-16.156,39.488 -28.296,78.259 -36.983,120.007c-1.938,9.123 -4.029,18.197 -6.165,27.275c-15.713,67.195 -25.714,133.943 -30.178,202.842c-0.284,4.052 -0.568,8.104 -0.86,12.278c-0.226,3.599 -0.452,7.197 -0.685,10.904c-1.586,10.294 -4.698,17.491 -9.846,26.482c-2.723,-182.974 10.302,-364.666 108.333,-525Z" style="fill:#01406b;fill-rule:nonzero;"/><path d="M1295.83,1204.17c24.767,9.368 48.664,18.71 70.834,33.333c2.062,6.188 2.062,6.188 4.166,12.5c-2.348,0.143 -4.696,0.287 -7.115,0.434c-115.23,7.376 -229.754,22.692 -342.661,46.87c-23.728,5.028 -47.518,9.736 -71.317,14.415c-4.489,0.913 -8.978,1.826 -13.602,2.767c-23.64,4.642 -45.38,7.36 -69.471,6.347c22.69,-15.126 50.907,-19.757 77.083,-26.823c3.289,-0.893 6.578,-1.786 9.967,-2.706c63.938,-17.26 128.424,-31.795 193.158,-45.731c4.65,-1.005 9.301,-2.011 14.092,-3.047c13.374,-2.88 26.755,-5.727 40.14,-8.558c3.966,-0.849 7.931,-1.698 12.017,-2.572c20.795,-4.339 41.156,-7.64 62.358,-9.153c9.21,-1.115 9.21,-1.115 20.351,-9.743l0,-8.333Z" style="fill:#0e67a6;fill-rule:nonzero;"/><path d="M629.167,1645.83c5.5,2.75 11,5.5 16.666,8.334c-0.698,2.911 -1.396,5.822 -2.116,8.821c-0.848,3.792 -1.697,7.584 -2.571,11.491c-0.87,3.771 -1.74,7.541 -2.637,11.426c-0.333,3.276 -0.666,6.553 -1.009,9.928c2.75,2.75 5.5,5.5 8.333,8.334c-0.423,9.733 -0.423,9.733 -2.604,22.396c-0.832,4.903 -1.665,9.807 -2.523,14.86c-2.195,11.873 -4.588,23.696 -7.063,35.514c-15.113,72.218 -25.301,145.187 -29.476,218.896l-33.334,0c-3.82,-116.293 16.19,-241.526 58.334,-350Z" style="fill:#38a0cf;fill-rule:nonzero;"/><path d="M1100,1387.5c5.612,1.508 5.612,1.508 11.338,3.046c25.503,6.941 50.871,14.279 76.162,21.954c-1.375,4.125 -2.75,8.25 -4.167,12.5c-0.161,6.943 -0.187,13.891 0,20.833l8.334,0c-1.375,2.75 -2.75,5.5 -4.167,8.334c-2.741,-1.074 -5.481,-2.147 -8.305,-3.252c-28.486,-10.804 -56.676,-18.473 -86.487,-24.613c-4.119,-0.883 -8.239,-1.767 -12.483,-2.677c-32.618,-6.903 -63.956,-11.776 -97.396,-11.532c-3.103,0.006 -6.207,0.012 -9.404,0.018c-9.805,0.023 -19.61,0.075 -29.415,0.129c-6.692,0.021 -13.384,0.04 -20.076,0.057c-16.312,0.045 -32.623,0.117 -48.934,0.203c-0.43,-2.664 -0.859,-5.328 -1.302,-8.073c-0.945,-2.836 -1.891,-5.672 -2.865,-8.594c-4.125,-1.375 -8.25,-2.75 -12.5,-4.166c4.125,-1.375 8.25,-2.75 12.5,-4.167c1.375,-2.75 2.75,-5.5 4.167,-8.333c59.105,-22.281 165.781,-7.744 225,8.333Z" style="fill:#2471ad;fill-rule:nonzero;"/><path d="M1154.17,1441.67c61.207,14.124 115.205,48.596 166.666,83.333c-6.053,19.265 -17.154,32.165 -30.729,46.615c-3.013,3.331 -3.013,3.331 -6.087,6.73c-10.424,11.259 -19.575,20.243 -34.017,25.822c-1.321,-2.836 -2.643,-5.672 -4.004,-8.594c-23.711,-49.256 -51.734,-96.91 -86.914,-138.9c-4.915,-6.673 -4.915,-6.673 -4.915,-15.006Z" style="fill:#f9fcfb;fill-rule:nonzero;"/><path d="M666.667,2420.83c2.454,5.418 2.454,5.418 4.958,10.946c6.156,13.562 12.366,27.099 18.591,40.629c2.673,5.828 5.332,11.663 7.975,17.505c14.559,32.144 28.962,61.978 51.809,89.254c-26.936,-8.101 -51.484,-18.577 -76.302,-31.771c-5.131,-2.706 -5.131,-2.706 -10.365,-5.467c-28.886,-15.6 -54.703,-33.525 -80,-54.429c52.483,-66.667 52.483,-66.667 83.334,-66.667Z" style="fill:#f8fbfb;fill-rule:nonzero;"/><path d="M804.167,1433.33c-2.981,3.798 -5.962,7.595 -9.034,11.507c-53.467,69.098 -97.37,141.91 -132.633,221.827c-3.119,7.01 -6.238,14.019 -9.359,21.028c-2.437,5.49 -4.873,10.981 -7.308,16.472c-4.125,-2.75 -8.25,-5.5 -12.5,-8.334c3.646,-32.291 3.646,-32.291 8.334,-41.666c-2.75,-1.375 -5.5,-2.75 -8.334,-4.167c2.628,-18.642 9.795,-34.166 18.23,-50.781c1.446,-2.871 2.893,-5.743 4.384,-8.701c18.262,-35.517 39.344,-69.314 60.72,-103.018c2.653,-4.216 5.306,-8.433 8.04,-12.777c14.195,-21.998 24.825,-32.32 50.553,-40.088c3.658,-1.133 7.316,-2.266 11.084,-3.434c9.489,-2.034 9.489,-2.034 17.823,2.132Z" style="fill:#369ecd;fill-rule:nonzero;"/><path d="M129.167,2154.17c18.533,17.486 33.759,36.817 49.218,57.031c5.218,6.761 10.437,13.521 15.658,20.28c2.483,3.221 4.966,6.442 7.524,9.761c20.826,26.964 42.36,53.289 64.318,79.334c1.954,2.319 3.907,4.639 5.92,7.028c7.498,8.842 14.933,17.5 23.296,25.54c4.899,5.192 4.899,5.192 4.899,13.526c2.487,1.111 4.974,2.223 7.536,3.369c9.321,5.068 14.732,9.979 21.891,17.724c21.683,22.385 46.332,41.321 70.736,60.629c5.643,4.533 11.102,9.293 16.504,14.111l-0,8.333c-17.731,-2.243 -29.543,-13.097 -42.969,-23.958c-3.787,-3.023 -3.787,-3.023 -7.651,-6.108c-19.456,-15.66 -38.535,-31.754 -57.453,-48.059c-2.508,-2.158 -5.015,-4.315 -7.598,-6.539c-15.481,-13.497 -30.104,-27.619 -44.531,-42.234c-7.212,-7.179 -14.761,-13.765 -22.611,-20.237c-20.094,-17.395 -37.333,-36.948 -54.687,-57.031c-1.912,-2.209 -3.823,-4.417 -5.793,-6.692c-13.533,-15.675 -26.851,-31.51 -40.041,-47.475c-2.535,-3.035 -5.07,-6.069 -7.682,-9.196c-8.599,-10.964 -13.151,-17.527 -13.151,-31.689c4.167,-9.115 4.167,-9.115 16.667,-17.448Z" style="fill:#022926;fill-rule:nonzero;"/><path d="M3785.42,3013.54c15.597,3.342 21.388,7.495 31.126,19.934c8.575,16.371 7.1,33.878 6.634,51.941c0.046,3.851 0.091,7.702 0.138,11.67c-0.261,24.327 -3.058,38.553 -19.148,57.08c-11.837,5.918 -20.229,5.477 -33.334,4.166c-11.866,-9.3 -16.041,-14.791 -20.833,-29.166c-1.269,-14.301 -1.348,-28.618 -1.562,-42.969c-0.156,-3.908 -0.312,-7.815 -0.473,-11.841c-0.237,-18.754 -0.246,-32.628 11.638,-47.778c11.23,-9.912 11.23,-9.912 25.814,-13.037Z" style="fill:#06348b;fill-rule:nonzero;"/><path d="M1095.83,1425c7.297,1.183 14.588,2.406 21.875,3.646c6.091,1.015 6.091,1.015 12.305,2.051c11.012,2.491 18.958,4.714 28.32,10.97c2.861,5.513 5.628,11.076 8.334,16.666c3.484,5.484 7.066,10.908 10.726,16.276c2.081,3.076 4.162,6.151 6.307,9.319c2.199,3.242 4.398,6.483 6.665,9.822c75.616,112.555 75.616,112.555 72.135,160.417l-8.333,-0c-1.375,-4.125 -2.75,-8.25 -4.167,-12.5c-5.481,-2.923 -11.047,-5.689 -16.667,-8.334c-10.015,-8.789 -15.899,-17.668 -21.989,-29.459c-1.771,-3.358 -3.542,-6.716 -5.367,-10.176c-1.886,-3.592 -3.773,-7.184 -5.717,-10.885c-28.329,-52.742 -62.206,-100.977 -99.804,-147.527c-4.623,-6.119 -4.623,-6.119 -4.623,-10.286Z" style="fill:#369fce;fill-rule:nonzero;"/><path d="M745.833,1454.17c-3.786,5.083 -3.786,5.083 -7.649,10.27c-22.801,31.047 -43.335,62.721 -62.246,96.296c-12.615,22.189 -12.615,22.189 -21.771,26.767c-25.008,-12.967 -48.047,-28.812 -66.667,-50c24.796,-22.304 50.849,-39.387 79.948,-55.469c3.166,-1.75 6.331,-3.5 9.593,-5.304c51.947,-28.175 51.947,-28.175 68.792,-22.56Z" style="fill:#f7fafa;fill-rule:nonzero;"/><path d="M1229.17,1629.17c10.156,3.125 10.156,3.125 20.833,8.333c3.385,8.854 3.385,8.854 4.167,16.667l8.333,-0l0,-25c39.613,39.613 51.864,145.537 58.333,200c-1.556,9.819 -3.901,16.135 -8.333,25l-12.5,-0c-2.75,5.5 -5.5,11 -8.333,16.666l-4.167,0c-0.418,-2.554 -0.835,-5.108 -1.265,-7.739c-11.334,-68.718 -23.74,-135.346 -48.523,-200.643c-3.913,-11.127 -6.586,-21.676 -8.545,-33.284Z" style="fill:#39a0ce;fill-rule:nonzero;"/><path d="M683.333,2404.17c7.592,0.591 7.592,0.591 16.667,4.166c6.137,10.257 6.137,10.257 11.865,23.877c2.158,4.958 4.316,9.916 6.539,15.024c1.119,2.625 2.238,5.25 3.391,7.955c18.591,43.413 37.997,82.721 69.676,118.265c8.529,9.879 8.529,9.879 12.696,22.379c-46.492,-5.579 -46.492,-5.579 -62.289,-19.824c-20.827,-28.362 -35.826,-58.789 -50.732,-90.592c-2.125,-4.48 -4.251,-8.961 -6.44,-13.577c-1.925,-4.242 -3.849,-8.485 -5.832,-12.856c-1.752,-3.832 -3.504,-7.664 -5.308,-11.613c-0.902,-3.257 -1.804,-6.515 -2.733,-9.871c2.75,-4.125 5.5,-8.25 8.334,-12.5c1.604,-6.898 3.033,-13.843 4.166,-20.833Z" style="fill:#389fcf;fill-rule:nonzero;"/><path d="M1045.83,2283.33c65.183,10.347 124.571,37.69 183.334,66.667c-7.813,23.958 -7.813,23.958 -12.5,33.333c-18.85,-5.824 -36.237,-13.477 -53.907,-22.135c-46.938,-22.351 -94.239,-38.062 -146.093,-44.531c2.599,-1.203 5.199,-2.407 7.877,-3.646c10.456,-5.576 15.053,-11.376 21.289,-21.354l0,-8.334Z" style="fill:#93b525;fill-rule:nonzero;"/><path d="M1508.33,1695.83c14.923,4.974 16.995,10.288 23.975,23.802c1.37,2.802 2.739,5.603 4.15,8.49c1.434,2.893 2.868,5.786 4.346,8.767c42.529,89.011 42.529,89.011 42.529,125.608c-6.187,2.063 -6.187,2.063 -12.5,4.167l0,-8.334c-7.882,-2.839 -7.882,-2.839 -16.666,-4.166c-2.75,2.75 -5.5,5.5 -8.334,8.333c-1.466,-4.689 -2.932,-9.378 -4.443,-14.209c-12.28,-38.421 -26.06,-74.384 -44.629,-110.221c-5.428,-13.925 -5.565,-19.94 -0.928,-33.903l8.334,-0c1.375,-2.75 2.75,-5.5 4.166,-8.334Z" style="fill:#2471ad;fill-rule:nonzero;"/><path d="M1312.5,1837.5c9.604,9.604 9.935,13.017 11.882,26.09c0.538,3.606 1.076,7.212 1.63,10.927c0.526,3.855 1.051,7.709 1.592,11.681c0.824,5.867 0.824,5.867 1.665,11.852c4.324,32.816 5.435,64.724 4.064,97.783l-33.333,0c-13.509,-122.246 -13.509,-122.246 -0,-145.833c4.125,1.375 8.25,2.75 12.5,4.167l-0,-16.667Z" style="fill:#369ece;fill-rule:nonzero;"/><path d="M933.333,2279.17l0,8.333l-12.5,0l0,8.333l20.834,0l-0,20.834c-3.991,0.408 -7.982,0.816 -12.093,1.237c-42.746,4.693 -83.76,13.145 -125.407,23.763c1.375,-4.125 2.75,-8.25 4.166,-12.5c-4.125,-2.75 -8.25,-5.5 -12.5,-8.334c1.375,-2.75 2.75,-5.5 4.167,-8.333c-4.125,-1.375 -8.25,-2.75 -12.5,-4.167c30.286,-10.376 60.17,-18.417 91.667,-23.958c2.988,-0.531 5.977,-1.061 9.056,-1.608c15.183,-2.548 29.713,-4.202 45.11,-3.6Z" style="fill:#a0be3f;fill-rule:nonzero;"/><path d="M1258.33,2370.83c24.609,12.544 42.429,28.021 61.719,47.657c2.78,2.731 5.559,5.462 8.423,8.276c13.634,13.717 24.647,24.885 29.858,44.067c-6.875,5.5 -13.75,11 -20.833,16.667c-13.543,-5.813 -21.14,-12.366 -30.469,-23.698c-18.432,-21.755 -37.473,-43.502 -61.198,-59.635c7.813,-28.646 7.813,-28.646 12.5,-33.334Z" style="fill:#92b528;fill-rule:nonzero;"/><path d="M800,2312.5l0,8.333c5.5,2.75 11,5.5 16.667,8.334c-15.274,13.329 -29.656,21.141 -48.438,28.646c-26.595,10.885 -51.637,23.675 -76.562,38.02c-4.125,-11 -8.25,-22 -12.5,-33.333c90.605,-53.1 90.605,-53.1 120.833,-50Z" style="fill:#92b525;fill-rule:nonzero;"/><path d="M3679.17,3029.17c6.822,21.063 3.047,41.916 -4.167,62.5c-13.021,9.114 -13.021,9.114 -25,12.5c-2.664,-4.469 -5.328,-8.938 -8.073,-13.542c-12.988,-18.506 -29.422,-24.982 -50.26,-32.292l-0,-8.333l-12.5,0l-0,-12.5c2.32,-0.156 4.64,-0.312 7.031,-0.472c17.264,-1.487 31.746,-3.676 47.656,-10.726c17.692,-7.389 27.795,-4.07 45.313,2.865Z" style="fill:#07348b;fill-rule:nonzero;"/><path d="M654.167,2387.5c2.75,9.625 5.5,19.25 8.333,29.167c-24.821,22.43 -49.744,44.726 -75,66.666c-19.639,-6.202 -19.639,-6.202 -25.684,-16.992c-1.149,-2.642 -2.298,-5.285 -3.483,-8.008c75.623,-70.833 75.623,-70.833 95.834,-70.833Z" style="fill:#91b426;fill-rule:nonzero;"/><path d="M866.667,2609.64c26.207,2.328 52.363,3.963 78.646,5.209c3.743,0.181 7.487,0.363 11.344,0.55c8.892,0.43 17.784,0.852 26.676,1.273l0,4.166l-45.833,0l0,8.334c9.625,1.375 19.25,2.75 29.167,4.166l-0,4.167c-6.875,1.375 -13.75,2.75 -20.834,4.167c2.063,4.125 2.063,4.125 4.167,8.333c-69.528,1.649 -69.528,1.649 -100,-8.333c-1.375,-4.125 -2.75,-8.25 -4.167,-12.5c-11,-1.375 -22,-2.75 -33.333,-4.167c20.078,-13.385 29.71,-17.804 54.167,-15.365Z" style="fill:#2572ad;fill-rule:nonzero;"/><path d="M1320.83,1529.17c19.668,10.086 19.668,10.086 24.48,20.052c0.975,17.07 -12.607,27.491 -23.08,39.892c-38.027,42.543 -38.027,42.543 -55.566,48.389c-6.771,-11.458 -6.771,-11.458 -12.5,-25c4.829,-13.988 13.31,-22.304 23.958,-32.292c16.239,-15.765 29.722,-32.546 42.708,-51.041Z" style="fill:#92b528;fill-rule:nonzero;"/><path d="M5087.5,2862.5c4.125,12.375 8.25,24.75 12.5,37.5c-80.142,41.667 -80.142,41.667 -100,41.667c-6.086,-11.031 -8.333,-16.227 -8.333,-29.167c14.393,-8.362 28.808,-16.685 43.229,-25c4.103,-2.385 8.207,-4.77 12.435,-7.227c3.921,-2.255 7.842,-4.511 11.881,-6.836c3.622,-2.094 7.245,-4.189 10.976,-6.347c8.979,-4.59 8.979,-4.59 17.312,-4.59Z" style="fill:#f4f6f9;fill-rule:nonzero;"/><path d="M979.167,2279.17c8.767,-0.113 17.534,-0.194 26.302,-0.261c4.882,-0.048 9.764,-0.096 14.795,-0.146c13.069,0.407 13.069,0.407 25.569,4.573l0,8.334c2.75,1.375 5.5,2.75 8.334,4.166c-20.834,16.667 -20.834,16.667 -75,16.667l-0,304.167l-4.167,-0c-0.043,-3.949 -0.086,-7.898 -0.13,-11.966c-0.407,-37.156 -0.835,-74.312 -1.284,-111.467c-0.23,-19.104 -0.453,-38.207 -0.658,-57.311c-0.199,-18.425 -0.417,-36.85 -0.649,-55.275c-0.085,-7.04 -0.163,-14.081 -0.233,-21.122c-0.101,-9.837 -0.226,-19.674 -0.357,-29.511c-0.024,-2.931 -0.048,-5.862 -0.073,-8.882c-0.053,-15.248 -0.053,-15.248 -4.949,-29.466l8.333,-0c1.375,-4.125 2.75,-8.25 4.167,-12.5Z" style="fill:#9cbb36;fill-rule:nonzero;"/><path d="M5741.67,3091.67c1.75,25.383 0.279,37.997 -16.667,58.333c-14.547,9.698 -20.384,10.429 -37.5,8.333c-11.442,-8.13 -15.782,-13.214 -19.271,-26.823c3.216,-13.183 9.448,-18.993 20.166,-27.05c17.179,-10.3 33.553,-12.793 53.272,-12.793Z" style="fill:#0f3a8f;fill-rule:nonzero;"/><path d="M583.333,1537.5c25.518,16.012 50.703,32.182 75,50c-4.125,9.625 -8.25,19.25 -12.5,29.167c-15.33,-2.693 -25.9,-9.447 -38.802,-17.969c-17.345,-11.3 -34.772,-21.98 -52.864,-32.031c9.722,-9.723 19.444,-19.445 29.166,-29.167Z" style="fill:#93b629;fill-rule:nonzero;"/><path d="M3916.67,3029.17l4.166,-0c0.613,5.051 0.613,5.051 1.237,10.205c4.198,33.698 4.198,33.698 23.763,60.628c-1.375,2.75 -2.75,5.5 -4.166,8.333l-8.334,0c4.125,8.25 8.25,16.5 12.5,25c-12.817,1.221 -12.817,1.221 -25.634,2.442c-2.541,0.569 -5.081,1.138 -7.699,1.725c-1.375,2.75 -2.75,5.5 -4.167,8.333c-9.673,1.697 -19.403,3.102 -29.166,4.167c1.289,-3.781 2.578,-7.562 3.906,-11.458c6.414,-22.063 7.17,-44.885 8.594,-67.709c4.125,4.125 8.25,8.25 12.5,12.5c6.963,-12.34 9.695,-22.378 10.937,-36.458c0.312,-3.33 0.623,-6.66 0.944,-10.091c0.204,-2.514 0.408,-5.027 0.619,-7.617Z" style="fill:#143f91;fill-rule:nonzero;"/><path d="M3552.6,3115.1c4.695,0.827 9.389,1.654 14.225,2.507c12.338,3.222 12.338,3.222 24.838,11.556c-1.302,9.896 -1.302,9.896 -4.167,20.833c-17.721,11.814 -33.359,11.015 -54.167,8.333c-23.415,-11.913 -23.415,-11.913 -29.166,-29.166c16.822,-16.444 25.491,-18.441 48.437,-14.063Z" style="fill:#0c378d;fill-rule:nonzero;"/><path d="M4375,3016.67c14.063,8.854 14.063,8.854 25,20.833l0,25l-75,0c4.167,-29.167 4.167,-29.167 13.281,-39.323c14.162,-7.867 20.765,-9.441 36.719,-6.51Z" style="fill:#07348b;fill-rule:nonzero;"/><path d="M5479.17,3016.67c14.062,8.854 14.062,8.854 25,20.833l-0,25l-75,0c4.166,-29.167 4.166,-29.167 13.281,-39.323c14.161,-7.867 20.765,-9.441 36.719,-6.51Z" style="fill:#08358b;fill-rule:nonzero;"/><path d="M504.167,1270.83l-0,8.334c-2.664,1.203 -5.328,2.406 -8.073,3.646c-9.228,3.971 -9.228,3.971 -12.761,13.02c-4.125,1.375 -8.25,2.75 -12.5,4.167c-23.451,21.026 -40.054,48.898 -56.763,75.295c-4.487,6.981 -9.256,13.779 -14.07,20.538l-8.333,0c0.172,-3.093 0.343,-6.187 0.52,-9.375c-0.537,-11.823 -2.897,-18.074 -8.854,-28.125c85.658,-87.5 85.658,-87.5 120.834,-87.5Z" style="fill:#08486c;fill-rule:nonzero;"/><path d="M5200,133.333l225,0c-2.75,5.5 -5.5,11 -8.333,16.667l-0,-8.333c-3.499,2.033 -3.499,2.033 -7.068,4.107c-10.825,4.766 -18.071,5.234 -29.85,5.172c-4.003,-0.001 -8.006,-0.001 -12.13,-0.002c-4.289,-0.043 -8.578,-0.086 -12.997,-0.13c-4.415,-0.012 -8.831,-0.024 -13.38,-0.036c-14.095,-0.047 -28.189,-0.151 -42.284,-0.257c-9.559,-0.042 -19.119,-0.08 -28.678,-0.114c-23.427,-0.092 -46.853,-0.231 -70.28,-0.407l0,-16.667Z" style="fill:#154193;fill-rule:nonzero;"/><path d="M3987.5,3112.5c8.773,1.176 17.539,2.401 26.302,3.646c4.882,0.677 9.765,1.353 14.795,2.051c13.07,2.636 13.07,2.636 25.57,10.97c-1.042,9.896 -1.042,9.896 -4.167,20.833c-17.07,10.979 -34.505,11.254 -54.167,8.333c-9.812,-4.596 -16.534,-9.72 -25,-16.666c1.977,-3.266 3.953,-6.532 5.99,-9.896c3.756,-6.311 7.393,-12.703 10.677,-19.271Z" style="fill:#0b378c;fill-rule:nonzero;"/><path d="M1300,2029.17l33.333,-0c0.443,36.437 0.054,72.084 -4.166,108.333l-4.167,0c-1.375,-15.125 -2.75,-30.25 -4.167,-45.833c-8.835,-0.962 -8.835,-0.962 -14.843,6.25c-1.977,2.062 -3.954,4.125 -5.99,6.25l-4.167,-0c2.063,-37.125 2.063,-37.125 4.167,-75Z" style="fill:#3ba1cf;fill-rule:nonzero;"/><path d="M5720.83,3016.67c12.24,6.771 12.24,6.771 20.834,16.666l-0,25c-24.75,2.063 -24.75,2.063 -50,4.167c1.375,-6.875 2.75,-13.75 4.166,-20.833c-8.25,1.375 -16.5,2.75 -25,4.166c1.484,-10.756 3.472,-15.918 10.938,-23.958c13.977,-7.357 23.472,-7.123 39.062,-5.208Z" style="fill:#0f3a8e;fill-rule:nonzero;"/><path d="M333.333,1900l8.334,0l-0,12.5c4.125,1.375 8.25,2.75 12.5,4.167c8.515,25.546 4.45,53.021 -0,79.166c-1.375,-2.75 -2.75,-5.5 -4.167,-8.333l-12.5,0c-12.066,-14.3 -14.163,-26.74 -13.493,-45.264c1.625,-14.571 5.301,-28.147 9.326,-42.236Z" style="fill:#216fac;fill-rule:nonzero;"/><path d="M3570.83,3016.67c9.556,6.032 13.935,11.635 20.834,20.833l-12.5,0l-0,12.5l12.5,0l-0,8.333c-10.163,-1.175 -20.316,-2.396 -30.469,-3.645c-2.876,-0.328 -5.753,-0.656 -8.716,-0.993c-14.8,-1.859 -23.189,-3.611 -35.815,-12.028c1.562,-10.157 1.562,-10.157 4.166,-20.834c15.458,-7.729 33.173,-6.65 50,-4.166Z" style="fill:#143f91;fill-rule:nonzero;"/><path d="M320.833,1966.67l8.334,-0c2.75,6.875 5.5,13.75 8.333,20.833l12.5,-0c1.375,-6.875 2.75,-13.75 4.167,-20.833l4.166,-0l0,91.666l-4.166,0l-0,-37.5l-8.334,0c-4.125,6.188 -13.833,20.75 -16.666,25c-1.626,8.291 -3.05,16.626 -4.167,25l-4.167,0l0,-104.166Z" style="fill:#3e82b0;fill-rule:nonzero;"/><path d="M3891.67,2670.83c15.104,0.782 15.104,0.782 23.779,2.523c14.055,2.418 27.842,1.741 42.057,1.384c9.164,0.26 9.164,0.26 21.664,4.427c1.375,2.75 2.75,5.5 4.166,8.333c8.403,4.723 8.403,4.723 16.667,8.333c-16.146,0.122 -32.291,0.196 -48.437,0.261c-6.841,0.052 -6.841,0.052 -13.819,0.106c-6.647,0.02 -6.647,0.02 -13.428,0.04c-6.087,0.033 -6.087,0.033 -12.298,0.066c-12.638,-0.497 -24.598,-2.312 -37.018,-4.639c6.25,-10.677 6.25,-10.677 16.667,-20.834Z" style="fill:#13549d;fill-rule:nonzero;"/><path d="M408.333,2437.5l8.334,0c1.375,2.75 2.75,5.5 4.166,8.333c4.125,-1.375 8.25,-2.75 12.5,-4.166c1.671,1.923 3.341,3.845 5.062,5.826c20.29,23.281 40.9,46.262 61.605,69.174c-4.125,1.375 -8.25,2.75 -12.5,4.166c-9.843,-6.716 -18.748,-13.494 -27.865,-21.093c-5.233,-4.246 -10.468,-8.488 -15.706,-12.728c-2.528,-2.067 -5.056,-4.133 -7.66,-6.262c-13.172,-10.663 -26.816,-20.671 -40.436,-30.75c4.125,-1.375 8.25,-2.75 12.5,-4.167l0,-8.333Z" style="fill:#023189;fill-rule:nonzero;"/><path d="M937.5,2620.83l50,0c1.375,4.125 2.75,8.25 4.167,12.5c14.633,5.124 14.633,5.124 29.166,8.334c-4.125,2.062 -4.125,2.062 -8.333,4.166l0,8.334l-91.667,-0l0,-4.167c3.18,-0.43 6.36,-0.859 9.636,-1.302c11.908,-3.047 16.02,-6.071 23.698,-15.365c-5.5,-1.375 -11,-2.75 -16.667,-4.166l0,-8.334Z" style="fill:#347cb4;fill-rule:nonzero;"/><path d="M970.833,1308.33l0,4.167c9.625,2.75 19.25,5.5 29.167,8.333l0,4.167c-2.806,0.083 -5.613,0.165 -8.504,0.25c-68.982,2.128 -136.454,5.322 -203.996,20.583c1.375,-2.75 2.75,-5.5 4.167,-8.333c9.638,-2.518 19.385,-4.627 29.166,-6.51c18.028,-2.078 18.028,-2.078 33.334,-10.157c11.375,-1.577 22.699,-2.952 34.114,-4.166c77.681,-8.477 77.681,-8.477 82.552,-8.334Z" style="fill:#268dc1;fill-rule:nonzero;"/><path d="M416.667,2466.67c19.264,6.989 34.769,22.142 50.561,34.863c9.996,7.885 18.968,14.629 30.884,19.271c13.97,5.739 23.667,15.284 34.44,25.553c3.138,2.925 3.138,2.925 6.34,5.908c5.116,4.776 10.199,9.587 15.275,14.405c-17.226,-0 -27.187,-8.79 -40.886,-18.229c-2.738,-1.859 -5.476,-3.718 -8.296,-5.633c-19.499,-13.301 -38.85,-26.818 -58.11,-40.461c-2.432,-1.718 -4.864,-3.436 -7.37,-5.207c-11.258,-8.063 -21.814,-16.057 -31.172,-26.304c2.75,-1.375 5.5,-2.75 8.334,-4.166Z" style="fill:#093534;fill-rule:nonzero;"/><path d="M1579.17,1879.17c19.192,15.406 18.307,39.472 20.833,62.5c0.53,11.236 0.433,22.08 -0,33.333l-4.167,-0c-2.75,-16.5 -5.5,-33 -8.333,-50c-16.227,7.016 -16.227,7.016 -25,16.667c-2.75,-15.125 -5.5,-30.25 -8.333,-45.834c4.125,-2.75 8.25,-5.5 12.5,-8.333c2.75,1.375 5.5,2.75 8.333,4.167c1.375,-4.125 2.75,-8.25 4.167,-12.5Z" style="fill:#337cb4;fill-rule:nonzero;"/><path d="M841.667,2604.17l-0,8.333c-8.25,4.125 -8.25,4.125 -16.667,8.333c3.352,1.203 6.703,2.407 10.156,3.646c10.677,4.688 10.677,4.688 14.844,13.021c4.125,2.75 8.25,5.5 12.5,8.333c-28.278,-3.288 -55.673,-10.053 -83.333,-16.666c2.75,-4.125 5.5,-8.25 8.333,-12.5l12.5,-0l0,-8.334c14.909,-9.748 24.676,-8.028 41.667,-4.166Z" style="fill:#2f79b1;fill-rule:nonzero;"/><path d="M3670.83,3091.67c7.06,12.695 10.395,24.284 13.021,38.541c0.698,3.717 1.397,7.434 2.116,11.263c0.505,2.815 1.01,5.629 1.53,8.529l-12.5,0l-0,-16.667l-12.5,0c-0.43,2.493 -0.859,4.985 -1.302,7.552c-3.257,10.364 -7.558,14.311 -15.365,21.615c0.138,-9.464 0.427,-18.927 0.782,-28.385c0.145,-5.269 0.29,-10.539 0.439,-15.967c2.946,-13.981 2.946,-13.981 13.574,-22.103c3.368,-1.445 6.736,-2.89 10.205,-4.378Z" style="fill:#143e92;fill-rule:nonzero;"/><path d="M1333.33,2870.83l0,8.334c2.75,1.375 5.5,2.75 8.334,4.166c-9.625,1.375 -19.25,2.75 -29.167,4.167l0,8.333c-15.125,-1.375 -30.25,-2.75 -45.833,-4.166l-0,-16.667c22.437,-3.819 43.926,-4.631 66.666,-4.167Z" style="fill:#278abd;fill-rule:nonzero;"/><rect x="941.667" y="2312.5" width="4.167" height="304.167" style="fill:#a0be3f;fill-rule:nonzero;"/><path d="M95.833,2100c13.158,16.279 25.434,32.907 37.5,50c-7.554,11.331 -15.269,19.761 -25,29.167c-6.785,-18.15 -9.755,-34.331 -10.937,-53.646c-0.312,-4.802 -0.623,-9.604 -0.944,-14.551c-0.306,-5.43 -0.306,-5.43 -0.619,-10.97Z" style="fill:#082d2c;fill-rule:nonzero;"/><path d="M3937.5,3100c17.478,2.497 33.375,6.562 50,12.5c-2.75,8.25 -5.5,16.5 -8.333,25l-8.334,0l0,-8.333c-6.961,0.257 -6.961,0.257 -14.062,0.521c-15.104,-0.521 -15.104,-0.521 -23.438,-8.855c1.563,-10.937 1.563,-10.937 4.167,-20.833Z" style="fill:#043289;fill-rule:nonzero;"/><path d="M1512.5,2258.33l8.333,0c-1.375,5.5 -2.75,11 -4.166,16.667l25,0c1.375,-2.75 2.75,-5.5 4.166,-8.333c-2.529,17.198 -8.492,30.55 -16.666,45.833c-8.334,-12.5 -8.334,-12.5 -8.334,-20.833c-10.398,3.255 -10.398,3.255 -20.833,8.333c-1.375,4.125 -2.75,8.25 -4.167,12.5c-2.75,-1.375 -5.5,-2.75 -8.333,-4.167c8.25,-16.5 16.5,-33 25,-50Z" style="fill:#2d77b0;fill-rule:nonzero;"/><path d="M1791.67,1750c6.919,12.786 11.257,25.315 15.104,39.323c1.085,3.862 2.17,7.724 3.288,11.702c2.374,11.158 2.895,20.944 2.441,32.308c-17.35,-16.11 -32.569,-31.343 -34.375,-55.729c0.516,-5.414 0.516,-5.414 1.042,-10.937c2.75,-1.375 5.5,-2.75 8.333,-4.167c1.375,-4.125 2.75,-8.25 4.167,-12.5Z" style="fill:#208ac0;fill-rule:nonzero;"/><path d="M1554.17,1850c3.265,2.063 6.531,4.125 9.895,6.25c10.044,6.939 10.044,6.939 19.271,6.25c2.865,9.375 2.865,9.375 4.167,20.833c-5.208,9.636 -5.208,9.636 -12.5,16.667c-12.5,0 -12.5,0 -20.833,-4.167c-1.872,-9.375 -1.872,-9.375 -2.865,-20.833c-0.36,-3.781 -0.72,-7.562 -1.09,-11.458c-0.07,-3.094 -0.14,-6.188 -0.212,-9.375c1.375,-1.375 2.75,-2.75 4.167,-4.167Z" style="fill:#2370ab;fill-rule:nonzero;"/></svg>